<?xml version="1.0" standalone="no"?>
<!DOCTYPE svg PUBLIC "-//W3C//DTD SVG 20010904//EN"
 "http://www.w3.org/TR/2001/REC-SVG-20010904/DTD/svg10.dtd">
<svg version="1.0" xmlns="http://www.w3.org/2000/svg"
 width="2040.000000pt" height="2040.000000pt" viewBox="0 0 2040.000000 2040.000000"
 preserveAspectRatio="xMidYMid meet">

<g transform="translate(0.000000,2040.000000) scale(0.100000,-0.100000)"
fill="#000000" stroke="none">
<path d="M10068 20193 c61 -2 163 -2 225 0 61 1 11 3 -113 3 -124 0 -174 -2
-112 -3z"/>
<path d="M9663 20183 c32 -2 81 -2 110 0 29 2 3 3 -58 3 -60 0 -84 -1 -52 -3z"/>
<path d="M10570 20184 c36 -2 173 -11 306 -19 281 -18 318 -18 174 0 -58 7
-204 15 -325 18 -121 2 -191 3 -155 1z"/>
<path d="M9350 20173 c-19 -1 -63 -6 -98 -9 -35 -3 -62 -7 -60 -9 2 -2 91 2
198 10 146 9 170 12 95 12 -55 0 -116 -2 -135 -4z"/>
<path d="M9113 20143 c9 -2 25 -2 35 0 9 3 1 5 -18 5 -19 0 -27 -2 -17 -5z"/>
<path d="M11173 20143 c9 -2 25 -2 35 0 9 3 1 5 -18 5 -19 0 -27 -2 -17 -5z"/>
<path d="M9033 20133 c9 -2 23 -2 30 0 6 3 -1 5 -18 5 -16 0 -22 -2 -12 -5z"/>
<path d="M11268 20133 c12 -2 30 -2 40 0 9 3 -1 5 -23 4 -22 0 -30 -2 -17 -4z"/>
<path d="M8948 20123 c6 -2 18 -2 25 0 6 3 1 5 -13 5 -14 0 -19 -2 -12 -5z"/>
<path d="M11353 20123 c15 -2 37 -2 50 0 12 2 0 4 -28 4 -27 0 -38 -2 -22 -4z"/>
<path d="M11435 20115 c13 -5 243 -35 269 -35 26 0 17 7 -19 15 -63 13 -276
29 -250 20z"/>
<path d="M8788 20103 c6 -2 18 -2 25 0 6 3 1 5 -13 5 -14 0 -19 -2 -12 -5z"/>
<path d="M8703 20093 c9 -2 25 -2 35 0 9 3 1 5 -18 5 -19 0 -27 -2 -17 -5z"/>
<path d="M8628 20083 c12 -2 30 -2 40 0 9 3 -1 5 -23 4 -22 0 -30 -2 -17 -4z"/>
<path d="M8568 20073 c7 -3 16 -2 19 1 4 3 -2 6 -13 5 -11 0 -14 -3 -6 -6z"/>
<path d="M11738 20073 c6 -2 18 -2 25 0 6 3 1 5 -13 5 -14 0 -19 -2 -12 -5z"/>
<path d="M8518 20063 c7 -3 16 -2 19 1 4 3 -2 6 -13 5 -11 0 -14 -3 -6 -6z"/>
<path d="M11788 20063 c7 -3 16 -2 19 1 4 3 -2 6 -13 5 -11 0 -14 -3 -6 -6z"/>
<path d="M11865 20049 c51 -10 92 -10 50 1 -16 4 -43 8 -60 8 -25 0 -24 -2 10
-9z"/>
<path d="M11950 20037 c6 -6 168 -37 191 -37 32 1 -16 19 -66 25 -27 3 -68 8
-90 12 -22 3 -38 3 -35 0z"/>
<path d="M8288 20023 c6 -2 18 -2 25 0 6 3 1 5 -13 5 -14 0 -19 -2 -12 -5z"/>
<path d="M8195 20010 c-14 -7 -8 -8 20 -3 22 3 42 7 44 9 9 8 -45 2 -64 -6z"/>
<path d="M8128 19993 c7 -3 16 -2 19 1 4 3 -2 6 -13 5 -11 0 -14 -3 -6 -6z"/>
<path d="M12180 19990 c14 -4 34 -8 45 -8 16 0 15 2 -5 8 -14 4 -34 8 -45 8
-16 0 -15 -2 5 -8z"/>
<path d="M8088 19983 c7 -3 16 -2 19 1 4 3 -2 6 -13 5 -11 0 -14 -3 -6 -6z"/>
<path d="M8048 19973 c7 -3 16 -2 19 1 4 3 -2 6 -13 5 -11 0 -14 -3 -6 -6z"/>
<path d="M12270 19970 c14 -4 34 -8 45 -8 l20 -1 -20 9 c-11 5 -31 8 -45 8
l-25 0 25 -8z"/>
<path d="M12340 19957 c4 -4 131 -34 220 -52 14 -3 -6 6 -45 19 -63 21 -187
44 -175 33z"/>
<path d="M7868 19933 c7 -3 16 -2 19 1 4 3 -2 6 -13 5 -11 0 -14 -3 -6 -6z"/>
<path d="M7828 19923 c7 -3 16 -2 19 1 4 3 -2 6 -13 5 -11 0 -14 -3 -6 -6z"/>
<path d="M12605 19890 c11 -5 29 -9 40 -9 l20 0 -20 9 c-11 5 -29 9 -40 9
l-20 0 20 -9z"/>
<path d="M12670 19877 c3 -3 59 -19 125 -36 66 -18 129 -35 140 -38 11 -3 17
-2 14 1 -4 4 -51 20 -105 35 -100 29 -183 47 -174 38z"/>
<path d="M7525 19850 c-13 -5 -14 -9 -5 -9 8 0 24 4 35 9 13 5 14 9 5 9 -8 0
-24 -4 -35 -9z"/>
<path d="M7478 19833 c7 -3 16 -2 19 1 4 3 -2 6 -13 5 -11 0 -14 -3 -6 -6z"/>
<path d="M12975 19790 c11 -5 27 -9 35 -9 9 0 8 4 -5 9 -11 5 -27 9 -35 9 -9
0 -8 -4 5 -9z"/>
<path d="M13045 19770 c11 -5 27 -9 35 -9 13 -1 13 0 0 9 -8 5 -24 9 -35 9
l-20 0 20 -9z"/>
<path d="M13125 19746 c35 -15 85 -28 85 -22 0 4 -95 36 -107 36 -4 -1 6 -7
22 -14z"/>
<path d="M13465 19631 c121 -43 301 -111 400 -150 99 -40 187 -75 195 -78 34
-10 -39 28 -90 48 -30 11 -86 34 -125 49 -38 16 -101 40 -140 55 -38 15 -92
35 -120 45 -27 11 -90 33 -140 50 -49 17 -105 38 -123 46 -18 7 -43 14 -55 14
-12 -1 77 -36 198 -79z"/>
<path d="M6770 19610 c-18 -12 -2 -12 25 0 13 6 15 9 5 9 -8 0 -22 -4 -30 -9z"/>
<path d="M6580 19540 c-8 -5 -10 -10 -5 -10 6 0 17 5 25 10 8 5 11 10 5 10 -5
0 -17 -5 -25 -10z"/>
<path d="M6380 19460 c-8 -5 -10 -10 -5 -10 6 0 17 5 25 10 8 5 11 10 5 10 -5
0 -17 -5 -25 -10z"/>
<path d="M14085 19393 c6 -5 46 -24 90 -43 789 -334 1714 -909 2410 -1501 791
-672 1461 -1434 2002 -2279 242 -379 522 -894 683 -1260 178 -404 236 -551
365 -930 114 -336 206 -660 266 -935 16 -77 38 -174 49 -215 10 -41 25 -113
32 -160 l13 -85 3 55 c5 83 -14 199 -42 260 -17 38 -28 89 -36 164 -9 81 -19
123 -40 168 -18 37 -32 91 -40 146 -6 48 -22 110 -35 137 -26 56 -40 106 -50
178 -3 26 -20 74 -36 105 -16 31 -34 84 -39 117 -6 33 -24 88 -41 122 -16 33
-34 86 -40 117 -5 30 -25 86 -43 123 -19 37 -39 94 -46 125 -6 32 -15 60 -20
63 -14 8 -46 85 -54 128 -4 20 -12 42 -19 49 -16 17 -52 94 -61 133 -4 17 -23
55 -41 85 -18 30 -36 71 -40 90 -4 19 -25 64 -46 99 -22 36 -39 70 -39 76 0 6
-17 45 -38 86 -20 41 -43 88 -49 104 -7 17 -22 45 -34 64 -11 19 -28 53 -37
75 -8 23 -26 53 -38 68 -12 15 -28 44 -35 65 -6 20 -25 55 -41 78 -16 22 -36
55 -44 73 -7 19 -27 54 -44 78 -16 25 -30 48 -30 53 0 4 -11 23 -25 42 -14 19
-38 59 -53 89 -15 30 -34 62 -44 70 -17 17 -80 116 -113 180 -11 22 -32 52
-47 67 -14 15 -35 46 -46 69 -11 22 -28 47 -37 54 -9 8 -27 35 -41 62 -13 26
-32 52 -42 57 -10 5 -24 22 -32 38 -8 15 -31 49 -50 75 -19 26 -60 81 -90 123
-30 41 -65 82 -77 91 -13 8 -23 20 -23 27 0 8 -14 29 -31 48 -17 19 -39 45
-48 59 -31 47 -113 155 -137 180 -13 14 -79 88 -146 165 -231 266 -565 608
-793 812 -49 44 -110 100 -135 123 -25 23 -72 65 -104 92 -33 28 -65 55 -72
61 -6 7 -35 30 -64 52 -29 22 -74 58 -100 80 -26 22 -63 51 -81 65 -18 14 -49
39 -69 56 -19 17 -75 61 -125 97 -49 36 -101 74 -115 85 -28 21 -246 170 -360
245 -155 103 -319 207 -326 207 -4 0 -62 34 -130 75 -264 162 -702 390 -949
496 -11 4 -54 23 -95 42 -84 38 -131 54 -115 40z"/>
<path d="M3929 18023 c-13 -16 -12 -17 4 -4 9 7 17 15 17 17 0 8 -8 3 -21 -13z"/>
<path d="M3879 17983 c-13 -16 -12 -17 4 -4 16 13 21 21 13 21 -2 0 -10 -8
-17 -17z"/>
<path d="M3639 17783 c-13 -16 -12 -17 4 -4 16 13 21 21 13 21 -2 0 -10 -8
-17 -17z"/>
<path d="M3349 17523 l-34 -38 38 34 c20 19 37 36 37 38 0 8 -8 0 -41 -34z"/>
<path d="M3110 17293 l-155 -158 158 155 c146 144 162 160 154 160 -1 0 -72
-71 -157 -157z"/>
<path d="M2824 16998 l-19 -23 23 19 c21 18 27 26 19 26 -2 0 -12 -10 -23 -22z"/>
<path d="M2729 16893 c-13 -16 -12 -17 4 -4 9 7 17 15 17 17 0 8 -8 3 -21 -13z"/>
<path d="M2449 16573 c-13 -16 -12 -17 4 -4 9 7 17 15 17 17 0 8 -8 3 -21 -13z"/>
<path d="M2409 16523 c-13 -16 -12 -17 4 -4 16 13 21 21 13 21 -2 0 -10 -8
-17 -17z"/>
<path d="M2369 16473 c-13 -16 -12 -17 4 -4 16 13 21 21 13 21 -2 0 -10 -8
-17 -17z"/>
<path d="M2329 16423 c-13 -16 -12 -17 4 -4 16 13 21 21 13 21 -2 0 -10 -8
-17 -17z"/>
<path d="M2289 16373 c-13 -16 -12 -17 4 -4 9 7 17 15 17 17 0 8 -8 3 -21 -13z"/>
<path d="M2069 16083 c-13 -16 -12 -17 4 -4 9 7 17 15 17 17 0 8 -8 3 -21 -13z"/>
<path d="M3954 15110 c0 -37 6 -62 14 -65 6 -2 12 -10 12 -17 0 -9 -3 -9 -11
2 -7 11 -9 -187 -5 -675 3 -379 6 -985 7 -1345 0 -421 4 -647 10 -631 6 14 8
543 7 1372 -2 893 0 1350 7 1352 23 7 315 -6 310 -13 -6 -10 58 -17 220 -25
66 -3 138 -7 160 -10 l40 -5 -40 14 c-22 8 -33 14 -26 15 32 2 -6 20 -49 23
-52 3 -61 22 -12 26 17 2 32 7 32 12 0 5 -10 8 -22 7 -37 -3 -579 13 -619 18
l-37 5 2 -60z"/>
<path d="M7605 14571 c0 -329 3 -594 7 -588 4 6 8 -13 11 -43 3 -46 6 311 11
1047 0 127 1 131 21 126 11 -3 108 -8 215 -10 107 -2 204 -8 215 -13 11 -5 88
-11 170 -14 83 -3 179 -8 215 -11 36 -3 59 -2 53 1 -7 3 -13 12 -13 19 0 8
-19 16 -47 20 -45 7 -46 8 -24 19 21 11 12 14 -75 19 -55 4 -211 9 -349 12
-137 3 -286 8 -330 11 l-80 5 0 -600z"/>
<path d="M14995 14482 c0 -590 2 -689 14 -684 9 3 12 1 7 -6 -4 -7 -2 -12 3
-12 8 0 11 197 11 644 l0 644 63 8 c34 4 220 7 412 7 408 -1 533 -13 657 -67
50 -21 59 -20 24 3 -25 17 -26 20 -10 29 14 8 7 11 -35 17 -40 5 -51 11 -47
21 3 9 0 14 -7 12 -21 -4 -120 13 -113 20 4 3 28 9 54 13 32 4 4 7 -88 8 -74
2 -151 4 -170 6 -19 2 -192 6 -385 10 -192 3 -359 8 -370 11 -20 5 -20 2 -20
-684z m138 616 c61 -2 61 -2 -18 -7 -90 -7 -90 -7 -80 9 4 6 14 9 22 6 8 -3
42 -7 76 -8z m120 -5 c-7 -2 -21 -2 -30 0 -10 3 -4 5 12 5 17 0 24 -2 18 -5z"/>
<path d="M16160 15090 c19 -13 30 -13 30 0 0 6 -10 10 -22 10 -19 0 -20 -2 -8
-10z"/>
<path d="M4000 15080 c0 -5 18 -10 40 -10 22 0 40 4 40 8 0 4 -18 9 -40 10
-23 2 -40 -2 -40 -8z"/>
<path d="M4120 15080 c-27 -6 -18 -8 40 -8 50 0 68 2 55 8 -23 10 -47 10 -95
0z"/>
<path d="M4248 15083 c7 -3 16 -2 19 1 4 3 -2 6 -13 5 -11 0 -14 -3 -6 -6z"/>
<path d="M7653 15078 c-2 -5 62 -7 144 -7 171 2 164 7 -15 11 -68 2 -126 0
-129 -4z"/>
<path d="M16217 15064 c3 -8 13 -14 22 -14 9 0 23 -6 30 -12 10 -9 12 -9 7 -1
-3 6 -19 18 -35 26 -25 12 -29 12 -24 1z"/>
<path d="M16295 15010 c3 -5 8 -10 11 -10 2 0 4 5 4 10 0 6 -5 10 -11 10 -5 0
-7 -4 -4 -10z"/>
<path d="M16360 14906 c0 -2 8 -10 18 -17 15 -13 16 -12 3 4 -13 16 -21 21
-21 13z"/>
<path d="M1220 14700 c-6 -11 -8 -20 -6 -20 3 0 10 9 16 20 6 11 8 20 6 20 -3
0 -10 -9 -16 -20z"/>
<path d="M17281 14398 c-6 -29 -18 -102 -25 -163 -8 -60 -22 -127 -30 -147 -9
-21 -16 -48 -15 -60 0 -17 4 -13 17 18 9 23 22 48 29 56 19 22 56 348 40 348
-3 0 -10 -24 -16 -52z"/>
<path d="M11062 14260 c0 -14 2 -19 5 -12 2 6 2 18 0 25 -3 6 -5 1 -5 -13z"/>
<path d="M11023 13975 c0 -33 2 -45 4 -27 2 18 2 45 0 60 -2 15 -4 0 -4 -33z"/>
<path d="M6248 13770 c-14 -392 -50 -678 -107 -840 -11 -30 -17 -58 -14 -63 7
-12 23 13 23 37 0 15 3 16 15 6 12 -10 15 -7 21 17 3 15 14 62 25 103 44 181
66 506 52 775 l-9 150 -6 -185z"/>
<path d="M11017 13628 c-3 -46 -2 -101 2 -123 7 -30 9 -9 10 83 0 67 -1 122
-3 122 -1 0 -6 -37 -9 -82z"/>
<path d="M16745 13454 c-27 -19 -80 -53 -117 -75 -38 -22 -68 -42 -68 -45 0
-11 211 118 230 141 18 21 12 18 -45 -21z"/>
<path d="M13623 13440 c0 -25 2 -35 4 -22 2 12 2 32 0 45 -2 12 -4 2 -4 -23z"/>
<path d="M13616 13373 c-3 -10 -7 -71 -8 -136 -1 -65 -5 -110 -9 -100 -4 11
-11 -11 -18 -57 -7 -41 -16 -91 -21 -110 -6 -22 -6 -36 0 -38 6 -2 10 -16 11
-30 0 -24 1 -25 9 -7 5 11 9 54 9 95 1 41 6 82 11 90 9 13 10 13 11 0 4 -47
18 83 20 183 1 114 -3 148 -15 110z"/>
<path d="M16501 13314 c-18 -8 -31 -17 -28 -20 5 -6 67 23 67 31 0 6 3 7 -39
-11z"/>
<path d="M16651 13296 c-18 -10 -20 -15 -10 -20 8 -3 5 -4 -7 -1 -11 3 -53 -6
-94 -20 -40 -14 -85 -25 -99 -24 -14 0 -20 3 -13 6 6 2 9 10 5 15 -4 7 2 9 15
6 29 -8 28 0 0 11 -27 10 -81 -6 -71 -22 3 -6 1 -7 -5 -3 -6 4 -42 -2 -79 -14
-144 -43 -242 -50 -693 -49 -234 0 -467 4 -519 7 l-93 7 6 -50 c3 -27 6 -61 7
-75 0 -23 1 -23 9 -5 7 16 9 12 9 -18 1 -26 -3 -36 -10 -31 -14 9 -7 -1254 7
-1277 5 -9 11 247 14 675 l5 688 285 -1 c556 -3 914 24 1138 84 121 32 282
106 256 116 -27 11 -36 10 -63 -5z"/>
<path d="M7606 13258 c4 -13 6 -36 6 -53 -2 -41 8 -86 18 -80 16 10 20 66 5
82 -27 27 -16 33 68 35 l82 2 -70 6 -70 6 65 3 c82 4 46 19 -48 20 -61 1 -63
0 -56 -21z"/>
<path d="M7786 13271 c-4 -5 3 -7 14 -4 23 6 26 13 6 13 -8 0 -17 -4 -20 -9z"/>
<path d="M7858 13273 c7 -3 16 -2 19 1 4 3 -2 6 -13 5 -11 0 -14 -3 -6 -6z"/>
<path d="M7913 13273 c15 -2 37 -2 50 0 12 2 0 4 -28 4 -27 0 -38 -2 -22 -4z"/>
<path d="M8008 13273 c7 -3 16 -2 19 1 4 3 -2 6 -13 5 -11 0 -14 -3 -6 -6z"/>
<path d="M8090 13274 c34 -7 269 -9 257 -2 -6 4 -70 7 -142 7 -71 -1 -123 -3
-115 -5z"/>
<path d="M8382 13203 c15 -35 29 -55 36 -49 4 5 -36 76 -44 76 -2 0 2 -12 8
-27z"/>
<path d="M7773 13193 c15 -2 39 -2 55 0 15 2 2 4 -28 4 -30 0 -43 -2 -27 -4z"/>
<path d="M8213 13193 c15 -2 39 -2 55 0 15 2 2 4 -28 4 -30 0 -43 -2 -27 -4z"/>
<path d="M601 13164 c0 -11 3 -14 6 -6 3 7 2 16 -1 19 -3 4 -6 -2 -5 -13z"/>
<path d="M7953 13173 c82 -2 212 -2 290 0 78 1 12 3 -148 3 -159 0 -223 -2
-142 -3z"/>
<path d="M7611 12418 c0 -370 4 -695 9 -723 4 -27 8 275 9 673 1 475 -2 722
-9 722 -7 0 -10 -230 -9 -672z"/>
<path d="M521 12904 c0 -11 3 -14 6 -6 3 7 2 16 -1 19 -3 4 -6 -2 -5 -13z"/>
<path d="M13535 12888 c-4 -18 -18 -62 -32 -96 -13 -35 -22 -71 -18 -80 6 -15
7 -15 14 -2 5 8 12 33 16 54 4 26 9 35 15 26 8 -13 16 11 24 82 6 47 -10 60
-19 16z"/>
<path d="M6096 12823 c-6 -14 -5 -15 5 -6 7 7 10 15 7 18 -3 3 -9 -2 -12 -12z"/>
<path d="M481 12754 c0 -11 3 -14 6 -6 3 7 2 16 -1 19 -3 4 -6 -2 -5 -13z"/>
<path d="M13457 12673 c-4 -3 -7 -11 -7 -17 0 -6 5 -5 12 2 6 6 9 14 7 17 -3
3 -9 2 -12 -2z"/>
<path d="M441 12594 c0 -11 3 -14 6 -6 3 7 2 16 -1 19 -3 4 -6 -2 -5 -13z"/>
<path d="M431 12544 c0 -11 3 -14 6 -6 3 7 2 16 -1 19 -3 4 -6 -2 -5 -13z"/>
<path d="M3981 12334 c0 -11 3 -14 6 -6 3 7 2 16 -1 19 -3 4 -6 -2 -5 -13z"/>
<path d="M361 12254 c0 -11 3 -14 6 -6 3 7 2 16 -1 19 -3 4 -6 -2 -5 -13z"/>
<path d="M10700 12222 c0 -5 7 -9 15 -9 8 0 12 4 9 9 -3 4 -9 8 -15 8 -5 0 -9
-4 -9 -8z"/>
<path d="M341 12144 c0 -11 3 -14 6 -6 3 7 2 16 -1 19 -3 4 -6 -2 -5 -13z"/>
<path d="M311 11994 c0 -11 3 -14 6 -6 3 7 2 16 -1 19 -3 4 -6 -2 -5 -13z"/>
<path d="M20001 11967 c-1 -10 10 -73 24 -140 13 -67 29 -173 36 -234 6 -62
14 -113 17 -113 3 0 2 69 -1 153 -4 105 -10 166 -22 197 -9 25 -25 70 -35 100
-11 30 -19 47 -19 37z"/>
<path d="M5336 11955 c-11 -8 -15 -15 -9 -15 6 0 16 7 23 15 16 19 11 19 -14
0z"/>
<path d="M11008 11909 c6 -13 16 -23 24 -21 8 1 25 -9 38 -23 25 -26 40 -32
40 -15 0 6 -11 15 -25 20 -14 5 -25 14 -25 20 0 5 -5 10 -12 10 -6 0 -20 8
-30 17 -18 16 -18 16 -10 -8z"/>
<path d="M291 11904 c0 -11 3 -14 6 -6 3 7 2 16 -1 19 -3 4 -6 -2 -5 -13z"/>
<path d="M5254 11904 c-18 -14 -18 -15 4 -4 12 6 22 13 22 15 0 8 -5 6 -26
-11z"/>
<path d="M5160 11865 c-16 -9 -19 -14 -9 -15 8 0 24 7 35 15 24 18 7 19 -26 0z"/>
<path d="M11060 11841 c19 -17 40 -30 45 -31 11 0 -30 36 -60 51 -11 6 -4 -3
15 -20z"/>
<path d="M283 11825 c0 -22 2 -30 4 -17 2 12 2 30 0 40 -3 9 -5 -1 -4 -23z"/>
<path d="M11120 11831 c0 -5 16 -15 35 -22 19 -7 35 -16 35 -21 0 -9 -29 0
-48 15 -7 5 -15 7 -18 5 -9 -10 90 -66 211 -118 224 -97 526 -137 845 -111
134 11 304 41 318 56 4 5 -2 5 -13 0 -11 -4 -55 -9 -97 -10 -61 -2 -78 0 -78
11 0 13 12 18 33 15 11 -2 8 6 -8 22 -12 13 -22 13 -77 1 -94 -21 -343 -28
-478 -14 -63 7 -155 14 -205 17 -52 4 -82 9 -70 13 12 4 -6 9 -51 13 -62 5
-167 43 -184 67 -3 4 -17 10 -32 14 -15 3 -44 17 -64 31 -39 27 -54 31 -54 16z
m100 -61 c0 -5 -4 -10 -9 -10 -6 0 -13 5 -16 10 -3 6 1 10 9 10 9 0 16 -4 16
-10z"/>
<path d="M4942 11781 c-7 -4 8 -7 33 -6 25 1 47 4 50 6 8 8 -71 8 -83 0z"/>
<path d="M5115 11764 c-84 -25 -135 -30 -135 -15 0 5 -18 8 -40 6 -22 -2 -38
0 -35 5 3 4 -23 0 -57 -11 -156 -47 -238 -51 -924 -48 l-643 4 6 -30 c11 -56
4 -55 292 -54 926 2 1310 25 1491 89 14 5 44 14 68 20 23 6 42 15 42 21 0 6
-10 8 -22 4 -18 -5 -20 -4 -8 4 18 13 53 14 46 2 -4 -5 11 -4 31 2 34 11 35
12 12 18 -34 10 -35 10 -124 -17z"/>
<path d="M271 11744 c0 -11 3 -14 6 -6 3 7 2 16 -1 19 -3 4 -6 -2 -5 -13z"/>
<path d="M9178 11723 c6 -2 9 -10 5 -16 -4 -7 0 -8 11 -4 10 4 24 7 32 7 8 0
14 5 14 10 0 6 -17 10 -37 9 -21 0 -32 -3 -25 -6z"/>
<path d="M14358 11723 c6 -2 18 -2 25 0 6 3 1 5 -13 5 -14 0 -19 -2 -12 -5z"/>
<path d="M6930 11711 c0 -10 126 -8 137 2 3 4 -26 7 -65 7 -40 0 -72 -4 -72
-9z"/>
<path d="M7083 11714 c7 -8 138 -6 146 1 2 3 -31 5 -74 5 -43 0 -75 -3 -72 -6z"/>
<path d="M7278 11713 c18 -2 45 -2 60 0 15 2 0 4 -33 4 -33 0 -45 -2 -27 -4z"/>
<path d="M7483 11713 c9 -2 25 -2 35 0 9 3 1 5 -18 5 -19 0 -27 -2 -17 -5z"/>
<path d="M7578 11713 c7 -3 16 -2 19 1 4 3 -2 6 -13 5 -11 0 -14 -3 -6 -6z"/>
<path d="M9250 11710 c0 -6 11 -8 28 -4 39 10 40 14 4 14 -18 0 -32 -5 -32
-10z"/>
<path d="M262 11690 c0 -14 2 -19 5 -12 2 6 2 18 0 25 -3 6 -5 1 -5 -13z"/>
<path d="M12355 11700 c-17 -7 -15 -9 13 -9 17 -1 32 4 32 9 0 12 -17 12 -45
0z"/>
<path d="M7015 11689 c-13 -5 4 -8 49 -8 38 -1 67 1 65 3 -9 9 -95 13 -114 5z"/>
<path d="M12460 11654 c-46 -10 -49 -12 -20 -12 19 0 44 3 55 7 11 5 25 5 31
0 7 -6 21 -6 35 -1 22 9 22 10 -11 13 -19 3 -60 -1 -90 -7z"/>
<path d="M7057 11643 c-2 -2 -25 -4 -51 -5 -32 0 -46 -5 -46 -14 0 -11 16 -14
63 -13 44 0 56 3 42 9 -13 6 3 8 50 8 69 -1 69 -1 20 -8 -27 -4 68 -8 212 -8
144 -1 264 1 266 6 3 4 -77 6 -176 5 -108 -1 -172 2 -157 7 19 6 8 9 -45 10
-38 1 -93 3 -122 5 -29 1 -54 1 -56 -2z"/>
<path d="M7468 11643 c7 -3 16 -2 19 1 4 3 -2 6 -13 5 -11 0 -14 -3 -6 -6z"/>
<path d="M7538 11633 c7 -3 16 -2 19 1 4 3 -2 6 -13 5 -11 0 -14 -3 -6 -6z"/>
<path d="M9230 11630 c-22 -5 -23 -7 -7 -13 20 -8 143 -10 136 -2 -3 2 -23 5
-44 6 -22 1 -44 5 -50 9 -5 4 -21 4 -35 0z"/>
<path d="M9418 11613 c7 -3 16 -2 19 1 4 3 -2 6 -13 5 -11 0 -14 -3 -6 -6z"/>
<path d="M14423 11613 c9 -2 25 -2 35 0 9 3 1 5 -18 5 -19 0 -27 -2 -17 -5z"/>
<path d="M231 11484 c0 -11 3 -14 6 -6 3 7 2 16 -1 19 -3 4 -6 -2 -5 -13z"/>
<path d="M221 11424 c0 -11 3 -14 6 -6 3 7 2 16 -1 19 -3 4 -6 -2 -5 -13z"/>
<path d="M20086 11390 c3 -30 11 -100 19 -155 32 -233 40 -422 40 -980 0 -559
-10 -821 -40 -1050 -8 -60 -25 -210 -39 -331 -14 -122 -34 -264 -45 -315 -11
-52 -30 -150 -42 -219 -74 -442 -237 -1038 -424 -1555 -386 -1065 -938 -2039
-1663 -2930 -278 -341 -750 -835 -1072 -1120 -74 -66 -144 -128 -155 -138 -11
-10 -51 -44 -90 -75 -38 -31 -108 -89 -155 -128 -493 -412 -1285 -909 -1960
-1229 -599 -283 -1277 -527 -1870 -671 -85 -20 -150 -39 -143 -41 10 -4 381
88 494 122 407 123 831 272 1047 367 23 10 120 52 215 93 94 40 199 87 232
103 33 16 101 48 150 71 50 23 97 45 105 50 8 4 47 25 85 46 39 21 115 63 170
93 55 31 138 77 185 102 73 41 259 153 450 271 101 62 419 279 526 359 255
188 687 550 898 750 195 185 449 445 591 604 230 257 344 387 369 421 13 17
43 57 67 91 25 33 75 98 112 145 37 46 93 122 124 169 31 47 73 105 93 130 20
25 61 83 90 130 29 47 62 96 72 110 22 29 169 261 216 340 18 30 37 62 42 70
40 64 90 153 90 160 0 4 13 25 29 47 16 22 45 73 65 114 32 67 104 204 133
254 7 11 23 45 37 75 14 30 31 66 39 80 26 46 95 195 102 220 4 14 22 54 40
90 43 85 90 196 125 293 16 43 33 84 39 90 5 7 21 50 36 96 15 46 38 107 50
135 12 28 26 67 30 86 4 19 22 69 40 110 18 41 36 95 40 120 4 25 22 81 40
125 18 44 36 103 40 130 4 28 22 88 40 135 18 47 36 112 40 145 4 33 22 101
40 150 20 53 36 121 41 165 3 41 21 125 39 185 22 72 35 143 39 205 5 64 18
133 41 210 30 100 36 138 45 285 5 94 17 199 26 235 48 196 46 156 51 1103 4
650 2 925 -7 995 -13 112 -73 356 -64 262z"/>
<path d="M212 11335 c0 -16 2 -22 5 -12 2 9 2 23 0 30 -3 6 -5 -1 -5 -18z"/>
<path d="M203 11210 c0 -25 2 -35 4 -22 2 12 2 32 0 45 -2 12 -4 2 -4 -23z"/>
<path d="M192 11090 c0 -14 2 -19 5 -12 2 6 2 18 0 25 -3 6 -5 1 -5 -13z"/>
<path d="M182 10990 c0 -19 2 -27 5 -17 2 9 2 25 0 35 -3 9 -5 1 -5 -18z"/>
<path d="M172 10880 c0 -14 2 -19 5 -12 2 6 2 18 0 25 -3 6 -5 1 -5 -13z"/>
<path d="M162 10730 c0 -14 2 -19 5 -12 2 6 2 18 0 25 -3 6 -5 1 -5 -13z"/>
<path d="M153 10530 c0 -25 2 -35 4 -22 2 12 2 32 0 45 -2 12 -4 2 -4 -23z"/>
<path d="M144 10180 c0 -124 2 -174 3 -112 2 61 2 163 0 225 -1 61 -3 11 -3
-113z"/>
<path d="M20047 9663 c-6 -289 -27 -594 -46 -673 -5 -19 -14 -71 -20 -115 -30
-229 -53 -391 -57 -396 -3 -5 -16 -69 -44 -219 -12 -62 -33 -156 -61 -275 -10
-44 -26 -109 -34 -145 -20 -88 -98 -378 -124 -465 -12 -38 -26 -87 -32 -108
-13 -53 -171 -521 -189 -562 -30 -68 -50 -119 -50 -128 0 -9 -49 -128 -101
-244 -11 -24 -19 -45 -19 -47 0 -2 -18 -43 -40 -90 -22 -47 -40 -88 -40 -91 0
-15 -137 -295 -260 -530 -41 -77 -80 -153 -87 -170 -8 -16 -18 -37 -23 -45 -6
-8 -27 -46 -49 -85 -22 -38 -43 -75 -48 -81 -9 -11 -14 -20 -74 -119 -24 -38
-55 -88 -69 -110 -76 -115 -120 -184 -145 -225 -16 -25 -31 -47 -34 -50 -3 -3
-44 -61 -90 -130 -91 -135 -279 -388 -400 -539 -168 -209 -152 -191 -406 -473
-66 -73 -134 -149 -152 -168 -17 -19 -42 -48 -54 -65 -13 -16 -29 -34 -36 -38
-7 -4 -13 -13 -13 -20 1 -16 122 114 450 484 114 128 247 293 432 539 99 130
386 552 459 675 20 33 81 134 136 225 132 217 408 744 460 875 6 17 30 71 53
120 62 134 159 374 214 525 9 25 20 54 25 65 47 107 236 693 256 795 4 19 20
80 35 135 16 55 34 127 40 160 6 33 24 112 40 175 16 63 36 160 45 214 8 55
27 149 40 210 14 61 32 172 40 246 8 74 24 196 36 270 11 74 25 167 29 205 10
80 26 795 18 795 -3 0 -8 -138 -11 -307z"/>
<path d="M153 9890 c0 -36 2 -50 4 -32 2 17 2 47 0 65 -2 17 -4 3 -4 -33z"/>
<path d="M163 9675 c0 -27 2 -38 4 -22 2 15 2 37 0 50 -2 12 -4 0 -4 -28z"/>
<path d="M171 9524 c0 -11 3 -14 6 -6 3 7 2 16 -1 19 -3 4 -6 -2 -5 -13z"/>
<path d="M182 9400 c0 -14 2 -19 5 -12 2 6 2 18 0 25 -3 6 -5 1 -5 -13z"/>
<path d="M203 9165 c0 -27 2 -38 4 -22 2 15 2 37 0 50 -2 12 -4 0 -4 -28z"/>
<path d="M213 9060 c0 -25 2 -35 4 -22 2 12 2 32 0 45 -2 12 -4 2 -4 -23z"/>
<path d="M222 8970 c0 -14 2 -19 5 -12 2 6 2 18 0 25 -3 6 -5 1 -5 -13z"/>
<path d="M320 8862 c0 -66 77 -552 100 -632 8 -29 9 -20 6 46 -2 45 -9 91 -16
103 -6 12 -13 43 -15 69 -7 81 -17 137 -25 147 -5 6 -11 55 -14 110 -8 137
-16 195 -27 195 -5 0 -9 -17 -9 -38z"/>
<path d="M242 8835 c0 -16 2 -22 5 -12 2 9 2 23 0 30 -3 6 -5 -1 -5 -18z"/>
<path d="M251 8774 c0 -11 3 -14 6 -6 3 7 2 16 -1 19 -3 4 -6 -2 -5 -13z"/>
<path d="M262 8720 c0 -14 2 -19 5 -12 2 6 2 18 0 25 -3 6 -5 1 -5 -13z"/>
<path d="M271 8664 c0 -11 3 -14 6 -6 3 7 2 16 -1 19 -3 4 -6 -2 -5 -13z"/>
<path d="M282 8590 c-1 -14 5 -54 12 -90 8 -36 14 -56 14 -45 1 11 -5 52 -12
90 -8 39 -14 59 -14 45z"/>
<path d="M311 8414 c0 -11 3 -14 6 -6 3 7 2 16 -1 19 -3 4 -6 -2 -5 -13z"/>
<path d="M321 8345 c0 -22 9 -65 20 -95 21 -59 20 -39 -6 75 -12 56 -13 57
-14 20z"/>
<path d="M366 8125 c6 -55 24 -114 23 -75 0 8 -6 42 -14 75 l-14 60 5 -60z"/>
<path d="M430 8168 c0 -32 148 -629 180 -723 l20 -60 -5 52 c-3 28 -12 67 -19
85 -7 18 -17 55 -21 82 -4 27 -13 59 -20 70 -7 12 -16 46 -19 76 -4 30 -11 59
-15 65 -5 5 -13 45 -20 88 -6 43 -17 88 -25 100 -7 12 -16 49 -19 81 -3 33
-13 66 -21 75 -9 8 -16 13 -16 9z"/>
<path d="M401 7969 c-1 -25 18 -93 24 -87 2 2 -3 28 -10 58 -8 33 -14 45 -14
29z"/>
<path d="M441 7814 c0 -11 3 -14 6 -6 3 7 2 16 -1 19 -3 4 -6 -2 -5 -13z"/>
<path d="M451 7764 c0 -11 3 -14 6 -6 3 7 2 16 -1 19 -3 4 -6 -2 -5 -13z"/>
<path d="M461 7724 c0 -11 3 -14 6 -6 3 7 2 16 -1 19 -3 4 -6 -2 -5 -13z"/>
<path d="M481 7645 c-1 -11 8 -47 19 -80 11 -33 28 -86 36 -118 9 -32 18 -57
20 -55 4 4 -34 148 -60 228 -8 25 -15 36 -15 25z"/>
<path d="M561 7364 c0 -11 3 -14 6 -6 3 7 2 16 -1 19 -3 4 -6 -2 -5 -13z"/>
<path d="M630 7376 c0 -39 201 -626 231 -675 6 -11 7 -4 3 24 -4 22 -12 47
-19 55 -8 8 -17 33 -20 55 -4 22 -11 45 -16 50 -4 6 -13 33 -20 60 -7 28 -18
59 -25 70 -7 11 -16 37 -19 58 -4 20 -16 54 -26 74 -11 21 -19 47 -19 60 0 12
-4 24 -9 28 -5 3 -15 31 -22 63 -7 31 -18 64 -26 72 -7 8 -13 11 -13 6z"/>
<path d="M567 7323 c12 -31 33 -68 33 -59 0 18 -24 76 -32 76 -4 0 -4 -8 -1
-17z"/>
<path d="M601 7241 c-1 -17 51 -183 55 -178 2 2 -9 46 -25 98 -17 52 -30 88
-30 80z"/>
<path d="M660 7045 c0 -5 5 -17 10 -25 5 -8 10 -10 10 -5 0 6 -5 17 -10 25 -5
8 -10 11 -10 5z"/>
<path d="M680 6984 c0 -10 5 -26 10 -34 8 -11 9 -7 4 15 -8 37 -14 45 -14 19z"/>
<path d="M702 6925 c0 -5 6 -26 13 -45 7 -19 14 -28 14 -20 0 8 -6 29 -14 45
-7 17 -13 26 -13 20z"/>
<path d="M735 6823 c4 -10 14 -37 22 -61 8 -24 17 -41 19 -39 6 5 -36 117 -43
117 -3 0 -2 -8 2 -17z"/>
<path d="M780 6705 c0 -5 5 -17 10 -25 5 -8 10 -10 10 -5 0 6 -5 17 -10 25 -5
8 -10 11 -10 5z"/>
<path d="M870 6672 c0 -17 169 -430 219 -537 16 -33 52 -111 82 -172 29 -62
56 -113 60 -113 11 0 -10 61 -27 81 -8 8 -14 21 -14 28 0 11 -45 108 -75 161
-8 14 -15 32 -15 41 0 9 -7 22 -15 29 -8 7 -17 27 -21 46 -3 19 -10 36 -14 39
-5 3 -14 22 -20 43 -11 35 -21 58 -69 164 -11 26 -21 54 -21 62 0 8 -5 18 -10
21 -6 3 -15 26 -21 50 -10 41 -39 83 -39 57z"/>
<path d="M811 6625 c0 -5 6 -21 14 -35 8 -14 14 -20 14 -15 0 6 -6 21 -14 35
-8 14 -14 21 -14 15z"/>
<path d="M921 6350 c0 -14 28 -72 29 -59 0 4 -7 22 -15 40 -8 19 -14 27 -14
19z"/>
<path d="M994 6173 c14 -41 55 -123 56 -113 0 9 -56 139 -64 147 -3 4 0 -11 8
-34z"/>
<path d="M1051 6045 c0 -5 6 -19 14 -29 8 -11 15 -15 15 -10 0 6 -7 19 -15 30
-8 10 -14 15 -14 9z"/>
<path d="M1081 5985 c0 -5 8 -26 19 -45 11 -19 19 -30 19 -25 0 6 -8 26 -19
45 -11 19 -19 31 -19 25z"/>
<path d="M1120 5894 c0 -6 7 -19 16 -30 14 -18 14 -18 3 6 -14 31 -19 36 -19
24z"/>
<path d="M1237 5823 c11 -31 33 -59 33 -43 0 31 -13 60 -26 60 -8 0 -11 -6 -7
-17z"/>
<path d="M1160 5813 c0 -7 9 -27 20 -45 11 -18 20 -28 20 -23 -1 16 -39 82
-40 68z"/>
<path d="M1285 5729 c9 -17 19 -29 21 -26 8 7 -15 57 -26 57 -6 0 -4 -13 5
-31z"/>
<path d="M1200 5725 c0 -5 9 -23 20 -40 26 -39 26 -25 0 17 -11 18 -20 29 -20
23z"/>
<path d="M1320 5662 c0 -5 7 -17 16 -28 14 -17 15 -17 10 -1 -3 10 -6 23 -6
28 0 5 -4 9 -10 9 -5 0 -10 -4 -10 -8z"/>
<path d="M1240 5643 c0 -5 10 -19 21 -33 l20 -25 -16 33 c-15 30 -25 41 -25
25z"/>
<path d="M1360 5592 c0 -18 22 -62 31 -62 5 0 3 12 -3 28 -15 33 -28 50 -28
34z"/>
<path d="M1295 5540 c9 -16 18 -30 21 -30 2 0 -2 14 -11 30 -9 17 -18 30 -21
30 -2 0 2 -13 11 -30z"/>
<path d="M1400 5506 c0 -7 6 -19 14 -25 11 -9 12 -6 8 14 -5 26 -22 35 -22 11z"/>
<path d="M1320 5491 c0 -6 4 -13 10 -16 6 -3 7 1 4 9 -7 18 -14 21 -14 7z"/>
<path d="M1440 5433 c0 -23 15 -39 24 -25 3 5 -1 18 -9 28 -14 18 -14 18 -15
-3z"/>
<path d="M1360 5426 c0 -10 51 -96 57 -96 3 0 -7 21 -23 48 -31 54 -34 58 -34
48z"/>
<path d="M1481 5356 c12 -20 23 -36 25 -36 7 0 -25 58 -36 65 -5 3 -1 -10 11
-29z"/>
<path d="M1440 5281 c11 -22 24 -42 29 -46 6 -3 -2 15 -15 40 -31 55 -42 60
-14 6z"/>
<path d="M1520 5292 c0 -5 7 -17 16 -28 14 -17 15 -17 10 -1 -3 10 -6 23 -6
28 0 5 -4 9 -10 9 -5 0 -10 -4 -10 -8z"/>
<path d="M1560 5222 c0 -5 6 -17 14 -27 13 -18 14 -18 9 8 -5 24 -23 39 -23
19z"/>
<path d="M1600 5165 c0 -5 5 -17 10 -25 5 -8 10 -10 10 -5 0 6 -5 17 -10 25
-5 8 -10 11 -10 5z"/>
<path d="M1641 5079 c13 -25 34 -37 26 -15 -4 10 -7 21 -7 25 0 4 -7 8 -14 8
-11 0 -12 -5 -5 -18z"/>
<path d="M1560 5075 c0 -5 10 -21 21 -35 13 -17 17 -18 10 -5 -17 33 -31 51
-31 40z"/>
<path d="M1600 5005 c0 -5 10 -21 21 -35 13 -17 17 -18 10 -5 -17 33 -31 51
-31 40z"/>
<path d="M1696 4987 c3 -10 9 -15 12 -12 3 3 0 11 -7 18 -10 9 -11 8 -5 -6z"/>
<path d="M1730 4941 c0 -5 5 -13 10 -16 6 -3 10 -2 10 4 0 5 -4 13 -10 16 -5
3 -10 2 -10 -4z"/>
<path d="M1650 4921 c5 -11 15 -23 21 -27 6 -3 3 5 -6 20 -20 30 -30 35 -15 7z"/>
<path d="M1760 4894 c0 -12 7 -27 15 -34 20 -17 21 9 0 36 -14 19 -14 19 -15
-2z"/>
<path d="M1690 4856 c0 -2 8 -10 18 -17 15 -13 16 -12 3 4 -13 16 -21 21 -21
13z"/>
<path d="M1806 4832 c-4 -7 7 -31 25 -57 36 -49 45 -53 29 -10 -6 15 -14 25
-18 21 -3 -4 -11 7 -17 25 -7 21 -14 29 -19 21z"/>
<path d="M1720 4813 c0 -6 8 -17 18 -24 16 -13 16 -13 2 6 -8 11 -16 22 -17
24 -2 2 -3 0 -3 -6z"/>
<path d="M1886 4687 c3 -10 9 -15 12 -12 3 3 0 11 -7 18 -10 9 -11 8 -5 -6z"/>
<path d="M1921 4639 c13 -25 34 -37 26 -15 -4 10 -7 21 -7 25 0 4 -7 8 -14 8
-11 0 -12 -5 -5 -18z"/>
<path d="M1850 4611 c5 -11 15 -23 21 -27 6 -3 3 5 -6 20 -20 30 -30 35 -15 7z"/>
<path d="M1960 4582 c0 -10 63 -93 67 -89 6 7 -10 46 -17 42 -5 -3 -12 0 -17
7 -8 13 -9 18 -12 38 -1 12 -21 14 -21 2z"/>
<path d="M1890 4551 c5 -11 15 -23 21 -27 6 -3 3 5 -6 20 -20 30 -30 35 -15 7z"/>
<path d="M1920 4506 c0 -2 8 -10 18 -17 15 -13 16 -12 3 4 -13 16 -21 21 -21
13z"/>
<path d="M1959 4452 c5 -10 18 -25 27 -33 11 -9 9 -2 -6 19 -26 35 -36 42 -21
14z"/>
<path d="M2046 4455 c4 -8 8 -15 10 -15 2 0 4 7 4 15 0 8 -4 15 -10 15 -5 0
-7 -7 -4 -15z"/>
<path d="M2080 4412 c0 -13 29 -48 30 -35 0 6 -5 15 -10 18 -6 4 -8 11 -5 16
4 5 1 9 -4 9 -6 0 -11 -4 -11 -8z"/>
<path d="M2039 4342 c5 -10 18 -25 27 -33 11 -9 9 -2 -6 19 -26 35 -36 42 -21
14z"/>
<path d="M2125 4340 c3 -5 11 -10 16 -10 6 0 7 5 4 10 -3 6 -11 10 -16 10 -6
0 -7 -4 -4 -10z"/>
<path d="M2089 4272 c5 -10 18 -25 27 -33 11 -9 9 -2 -6 19 -26 35 -36 42 -21
14z"/>
<path d="M2207 4233 c9 -13 18 -21 21 -19 3 3 0 12 -6 19 -7 8 -10 16 -7 19 3
2 -1 5 -9 5 -12 0 -12 -4 1 -24z"/>
<path d="M2130 4216 c0 -2 8 -10 18 -17 15 -13 16 -12 3 4 -13 16 -21 21 -21
13z"/>
<path d="M2328 4073 c45 -63 91 -108 92 -90 0 9 -5 16 -11 15 -6 -2 -17 13
-24 32 -7 21 -14 29 -17 20 -3 -9 -9 -3 -19 18 -7 18 -20 32 -27 32 -10 0 -8
-8 6 -27z"/>
<path d="M2280 4020 c17 -22 34 -40 37 -40 2 0 -10 18 -27 40 -17 22 -34 40
-37 40 -2 0 10 -18 27 -40z"/>
<path d="M2335 3950 c10 -11 20 -20 23 -20 3 0 -3 9 -13 20 -10 11 -20 20 -23
20 -3 0 3 -9 13 -20z"/>
<path d="M2446 3942 c-3 -6 -1 -14 5 -17 15 -10 25 3 12 16 -7 7 -13 7 -17 1z"/>
<path d="M2476 3902 c-3 -5 20 -36 50 -71 29 -34 54 -58 54 -53 0 5 -7 15 -15
22 -8 6 -17 21 -21 33 -8 26 -45 77 -55 77 -4 0 -10 -4 -13 -8z"/>
<path d="M2450 3806 c0 -2 8 -10 18 -17 15 -13 16 -12 3 4 -13 16 -21 21 -21
13z"/>
<path d="M2535 3710 c10 -11 20 -20 23 -20 3 0 -3 9 -13 20 -10 11 -20 20 -23
20 -3 0 3 -9 13 -20z"/>
<path d="M2697 3624 c60 -69 143 -151 143 -142 0 4 -15 24 -34 44 -19 21 -33
42 -30 46 3 4 -2 8 -11 8 -8 0 -19 8 -22 18 -7 20 -40 51 -74 71 -15 9 -4 -8
28 -45z"/>
<path d="M2580 3656 c0 -2 8 -10 18 -17 15 -13 16 -12 3 4 -13 16 -21 21 -21
13z"/>
<path d="M2665 3560 c38 -50 269 -298 274 -294 2 2 -50 61 -116 131 -66 70
-135 144 -153 163 l-32 35 27 -35z"/>
<path d="M2850 3455 c7 -9 15 -13 17 -11 7 7 -7 26 -19 26 -6 0 -6 -6 2 -15z"/>
<path d="M2880 3426 c0 -2 7 -9 15 -16 13 -11 14 -10 9 4 -5 14 -24 23 -24 12z"/>
<path d="M2920 3381 c0 -5 5 -13 10 -16 6 -3 10 -2 10 4 0 5 -4 13 -10 16 -5
3 -10 2 -10 -4z"/>
<path d="M3105 3090 c82 -82 152 -150 155 -150 2 0 -63 68 -145 150 -82 83
-152 150 -155 150 -2 0 63 -67 145 -150z"/>
<path d="M17106 3121 c-56 -46 -222 -195 -301 -271 -110 -105 -243 -218 -440
-375 -138 -110 -203 -160 -415 -316 -192 -142 -536 -367 -750 -492 -304 -178
-891 -479 -1115 -572 -49 -21 -103 -43 -120 -51 -186 -82 -585 -231 -717 -269
-25 -7 -52 -16 -59 -21 -7 -4 -36 -13 -63 -20 -28 -7 -89 -25 -136 -39 -134
-41 -441 -120 -680 -175 -47 -11 -116 -27 -155 -36 -38 -9 -95 -20 -125 -24
-65 -10 -344 -58 -380 -65 -14 -3 -45 -8 -70 -10 -45 -5 -131 -19 -205 -35
-22 -4 -69 -8 -105 -9 -70 -1 -126 -7 -205 -21 -27 -5 -219 -12 -425 -16 -621
-12 -740 -12 -734 -2 4 6 -4 5 -16 -2 -12 -7 -20 -8 -17 -3 4 6 -113 12 -298
16 -179 4 -342 13 -397 21 -51 8 -132 17 -179 20 -48 3 -106 10 -130 15 -24 5
-84 13 -134 16 -49 4 -117 13 -150 21 -33 7 -80 15 -105 17 -25 1 -51 6 -58
11 -6 4 -12 5 -12 2 0 -2 -26 2 -58 10 -31 7 -77 14 -102 14 -49 1 -171 26
-290 59 -41 11 -106 28 -145 37 -38 9 -99 24 -135 34 -36 11 -87 24 -115 30
-71 15 -152 39 -207 61 -26 10 -55 19 -65 19 -10 0 -31 7 -47 15 -15 8 -36 15
-45 15 -16 0 -78 20 -96 31 -5 4 -34 12 -62 20 -29 7 -53 16 -53 20 0 3 -27
12 -60 19 -33 7 -60 16 -60 20 0 3 -33 17 -72 30 -79 24 -95 30 -148 53 -19 9
-47 19 -63 22 -15 4 -30 11 -33 16 -3 5 -12 9 -19 9 -8 0 -40 12 -72 26 -32
14 -74 33 -93 41 -19 8 -52 23 -73 34 -22 10 -43 19 -48 19 -4 0 -33 11 -63
25 -30 14 -58 25 -62 25 -4 0 -42 16 -83 36 -42 20 -114 54 -161 76 -140 67
-295 143 -300 148 -3 3 -18 12 -35 20 -16 8 -66 35 -110 61 -44 25 -125 70
-180 99 -55 30 -102 56 -105 59 -10 12 -50 31 -65 31 -9 0 -13 4 -10 10 3 5
-3 10 -14 10 -12 0 -21 5 -21 10 0 6 -5 10 -10 10 -6 0 -20 9 -32 20 -12 11
-30 20 -40 20 -11 0 -16 4 -13 10 3 5 0 10 -8 10 -8 0 -20 6 -27 14 -6 8 -18
12 -26 9 -9 -3 -14 0 -12 8 2 8 -4 13 -14 13 -10 -1 -16 2 -13 5 5 9 -70 51
-91 51 -8 0 -13 4 -12 9 2 5 -1 9 -6 9 -5 0 -12 4 -15 9 -7 10 -196 145 -230
164 -14 8 -34 22 -45 32 -12 11 -46 37 -76 58 -174 123 -331 243 -422 323 -42
36 -79 66 -84 66 -5 0 0 -7 10 -15 11 -8 15 -15 9 -15 -13 0 -35 25 -27 32 6
7 -73 73 -87 73 -4 0 -14 6 -20 13 -7 6 -19 12 -27 12 -8 0 -12 6 -9 14 4 10
-2 16 -21 18 -15 2 -28 10 -28 18 -3 32 -5 34 -14 20 -7 -11 -11 -9 -19 13 -6
15 -17 27 -26 27 -8 0 -14 3 -12 8 3 11 -94 102 -104 97 -4 -3 -11 0 -15 6 -5
8 -3 9 7 4 8 -4 -4 11 -26 34 -39 41 -52 51 -39 30 4 -7 2 -10 -5 -8 -7 3 -12
8 -11 13 2 10 -29 30 -36 23 -4 -4 89 -96 211 -208 127 -117 367 -309 377
-303 6 4 8 3 5 -4 -4 -5 16 -27 45 -48 29 -21 89 -66 133 -101 188 -146 242
-183 261 -177 14 4 15 3 5 -4 -15 -11 10 -29 259 -195 224 -149 276 -181 615
-377 258 -149 765 -398 1035 -507 47 -19 99 -40 115 -47 17 -8 62 -26 100 -41
39 -15 84 -34 100 -41 17 -8 44 -18 60 -23 17 -5 62 -21 100 -35 120 -45 427
-147 495 -166 36 -10 99 -28 140 -40 41 -11 116 -32 165 -45 50 -13 126 -33
170 -45 44 -11 109 -27 145 -35 36 -8 115 -26 175 -40 61 -14 151 -32 200 -40
313 -54 515 -85 547 -85 20 0 69 -7 107 -15 39 -8 131 -19 204 -25 72 -5 191
-15 262 -21 84 -7 379 -9 830 -6 625 3 724 6 920 25 121 12 245 27 275 32 71
13 282 46 385 60 118 17 406 75 600 121 639 153 1111 310 1700 566 139 61 578
276 705 345 30 17 105 58 165 91 330 181 613 360 946 598 248 177 610 463 786
621 115 103 373 337 402 364 29 27 26 39 -3 15z m-13656 -226 c13 -14 21 -25
18 -25 -2 0 -15 11 -28 25 -13 14 -21 25 -18 25 2 0 15 -11 28 -25z m345 -305
c10 -11 16 -20 13 -20 -3 0 -13 9 -23 20 -10 11 -16 20 -13 20 3 0 13 -9 23
-20z m45 -40 c0 -5 -2 -10 -4 -10 -3 0 -8 5 -11 10 -3 6 -1 10 4 10 6 0 11 -4
11 -10z m80 -65 c7 -9 8 -15 2 -15 -5 0 -12 7 -16 15 -3 8 -4 15 -2 15 2 0 9
-7 16 -15z"/>
<path d="M3332 2991 c-10 -6 -10 -10 1 -20 12 -9 16 -8 20 3 7 19 -4 27 -21
17z"/>
<path d="M3330 2878 c24 -27 45 -48 47 -48 8 0 0 9 -44 50 l-48 45 45 -47z"/>
<path d="M3461 2753 c35 -33 82 -75 104 -92 22 -18 2 4 -45 48 -47 45 -94 87
-104 93 -11 6 9 -16 45 -49z"/>
<path d="M3630 2605 c13 -14 26 -25 28 -25 3 0 -5 11 -18 25 -13 14 -26 25
-28 25 -3 0 5 -11 18 -25z"/>
<path d="M3680 2566 c0 -2 8 -10 18 -17 15 -13 16 -12 3 4 -13 16 -21 21 -21
13z"/>
<path d="M3779 2477 c26 -28 31 -32 31 -19 0 4 -13 16 -28 26 l-27 19 24 -26z"/>
<path d="M3820 2446 c0 -2 8 -10 18 -17 15 -13 16 -12 3 4 -13 16 -21 21 -21
13z"/>
<path d="M3870 2406 c0 -2 8 -10 18 -17 15 -13 16 -12 3 4 -13 16 -21 21 -21
13z"/>
<path d="M3910 2376 c0 -2 8 -10 18 -17 15 -13 16 -12 3 4 -13 16 -21 21 -21
13z"/>
<path d="M3960 2336 c0 -2 8 -10 18 -17 15 -13 16 -12 3 4 -13 16 -21 21 -21
13z"/>
<path d="M4000 2306 c0 -2 8 -10 18 -17 15 -13 16 -12 3 4 -13 16 -21 21 -21
13z"/>
<path d="M4097 2223 c78 -63 83 -66 83 -61 0 7 -126 108 -135 108 -4 0 19 -21
52 -47z"/>
<path d="M4190 2155 c0 -5 94 -74 135 -98 29 -17 29 -17 7 0 -50 40 -135 103
-138 103 -2 0 -4 -2 -4 -5z"/>
<path d="M4530 1916 c0 -3 9 -10 20 -16 11 -6 20 -8 20 -6 0 3 -9 10 -20 16
-11 6 -20 8 -20 6z"/>
<path d="M4670 1826 c0 -2 8 -10 18 -17 15 -13 16 -12 3 4 -13 16 -21 21 -21
13z"/>
<path d="M4900 1676 c0 -3 9 -10 20 -16 11 -6 20 -8 20 -6 0 3 -9 10 -20 16
-11 6 -20 8 -20 6z"/>
<path d="M5037 1589 c7 -7 15 -10 18 -7 3 3 -2 9 -12 12 -14 6 -15 5 -6 -5z"/>
<path d="M5100 1556 c0 -3 9 -10 20 -16 11 -6 20 -8 20 -6 0 3 -9 10 -20 16
-11 6 -20 8 -20 6z"/>
<path d="M5150 1526 c0 -3 14 -12 30 -21 17 -9 30 -13 30 -11 0 3 -13 12 -30
21 -16 9 -30 13 -30 11z"/>
<path d="M5540 1315 c0 -6 64 -43 93 -54 46 -18 30 -4 -33 27 -33 17 -60 29
-60 27z"/>
<path d="M5780 1190 c8 -5 20 -10 25 -10 6 0 3 5 -5 10 -8 5 -19 10 -25 10 -5
0 -3 -5 5 -10z"/>
<path d="M5900 1135 c0 -5 68 -35 79 -35 8 1 -61 39 -71 40 -5 0 -8 -2 -8 -5z"/>
<path d="M6010 1087 c0 -7 148 -77 161 -76 8 0 -24 18 -70 40 -83 39 -91 42
-91 36z"/>
<path d="M6210 997 c0 -7 172 -78 177 -73 2 2 -33 19 -79 37 -45 19 -86 36
-90 37 -4 2 -8 1 -8 -1z"/>
<path d="M6400 916 c0 -7 162 -67 167 -62 2 2 -32 18 -77 35 -85 32 -90 34
-90 27z"/>
<path d="M6610 838 c0 -7 141 -61 146 -56 2 3 -24 15 -58 28 -35 12 -69 25
-75 27 -7 3 -13 3 -13 1z"/>
<path d="M6780 770 c8 -5 22 -9 30 -9 10 0 8 3 -5 9 -27 12 -43 12 -25 0z"/>
<path d="M6870 741 c20 -14 230 -84 235 -79 3 2 -46 21 -108 42 -154 52 -145
50 -127 37z"/>
<path d="M7120 656 c0 -6 128 -46 144 -45 12 1 -72 32 -116 43 -16 3 -28 4
-28 2z"/>
<path d="M7415 565 c17 -7 48 -16 70 -19 27 -4 19 0 -25 14 -75 22 -88 24 -45
5z"/>
<path d="M7538 533 c7 -3 16 -2 19 1 4 3 -2 6 -13 5 -11 0 -14 -3 -6 -6z"/>
<path d="M7728 483 c6 -2 18 -2 25 0 6 3 1 5 -13 5 -14 0 -19 -2 -12 -5z"/>
<path d="M7785 470 c11 -5 29 -8 40 -8 16 0 15 2 -5 8 -34 11 -60 11 -35 0z"/>
<path d="M7858 453 c7 -3 16 -2 19 1 4 3 -2 6 -13 5 -11 0 -14 -3 -6 -6z"/>
<path d="M7910 440 c14 -4 34 -8 45 -8 16 0 15 2 -5 8 -14 4 -34 8 -45 8 -16
0 -15 -2 5 -8z"/>
<path d="M12260 419 c-159 -33 -183 -40 -115 -33 78 8 311 63 265 62 -8 0 -76
-13 -150 -29z"/>
<path d="M7988 423 c7 -3 16 -2 19 1 4 3 -2 6 -13 5 -11 0 -14 -3 -6 -6z"/>
<path d="M8065 404 c28 -7 59 -13 70 -13 11 0 -5 7 -35 14 -72 18 -100 17 -35
-1z"/>
<path d="M8168 383 c6 -2 18 -2 25 0 6 3 1 5 -13 5 -14 0 -19 -2 -12 -5z"/>
<path d="M8218 373 c6 -2 18 -2 25 0 6 3 1 5 -13 5 -14 0 -19 -2 -12 -5z"/>
<path d="M12068 373 c7 -3 16 -2 19 1 4 3 -2 6 -13 5 -11 0 -14 -3 -6 -6z"/>
<path d="M8268 363 c6 -2 18 -2 25 0 6 3 1 5 -13 5 -14 0 -19 -2 -12 -5z"/>
<path d="M11945 355 l-60 -14 53 6 c29 3 65 9 80 13 44 13 -5 10 -73 -5z"/>
<path d="M8318 353 c6 -2 18 -2 25 0 6 3 1 5 -13 5 -14 0 -19 -2 -12 -5z"/>
<path d="M8440 330 c14 -4 36 -8 50 -8 22 0 22 1 -5 8 -16 4 -39 8 -50 8 -16
0 -15 -2 5 -8z"/>
<path d="M11848 333 c7 -3 16 -2 19 1 4 3 -2 6 -13 5 -11 0 -14 -3 -6 -6z"/>
<path d="M11788 323 c6 -2 18 -2 25 0 6 3 1 5 -13 5 -14 0 -19 -2 -12 -5z"/>
<path d="M8548 313 c6 -2 18 -2 25 0 6 3 1 5 -13 5 -14 0 -19 -2 -12 -5z"/>
<path d="M11680 310 c-34 -7 -34 -7 -5 -8 17 0 44 4 60 8 27 7 27 8 5 8 -14
-1 -41 -4 -60 -8z"/>
<path d="M8603 303 c9 -2 25 -2 35 0 9 3 1 5 -18 5 -19 0 -27 -2 -17 -5z"/>
<path d="M8678 293 c6 -2 18 -2 25 0 6 3 1 5 -13 5 -14 0 -19 -2 -12 -5z"/>
<path d="M11603 293 c9 -2 23 -2 30 0 6 3 -1 5 -18 5 -16 0 -22 -2 -12 -5z"/>
<path d="M8743 283 c9 -2 23 -2 30 0 6 3 -1 5 -18 5 -16 0 -22 -2 -12 -5z"/>
<path d="M11523 283 c9 -2 25 -2 35 0 9 3 1 5 -18 5 -19 0 -27 -2 -17 -5z"/>
<path d="M8828 273 c7 -3 16 -2 19 1 4 3 -2 6 -13 5 -11 0 -14 -3 -6 -6z"/>
<path d="M11453 273 c9 -2 25 -2 35 0 9 3 1 5 -18 5 -19 0 -27 -2 -17 -5z"/>
<path d="M8898 263 c7 -3 16 -2 19 1 4 3 -2 6 -13 5 -11 0 -14 -3 -6 -6z"/>
<path d="M11383 263 c9 -2 23 -2 30 0 6 3 -1 5 -18 5 -16 0 -22 -2 -12 -5z"/>
<path d="M11278 253 c6 -2 18 -2 25 0 6 3 1 5 -13 5 -14 0 -19 -2 -12 -5z"/>
<path d="M9068 243 c6 -2 18 -2 25 0 6 3 1 5 -13 5 -14 0 -19 -2 -12 -5z"/>
<path d="M11193 243 c9 -2 25 -2 35 0 9 3 1 5 -18 5 -19 0 -27 -2 -17 -5z"/>
<path d="M9172 230 c34 -10 416 -34 443 -27 11 2 -7 5 -40 6 -33 1 -114 6
-180 11 -227 18 -251 19 -223 10z"/>
<path d="M11005 228 c-44 -5 -190 -15 -325 -22 -167 -9 -213 -14 -145 -15 116
-1 529 25 595 38 l45 9 -45 0 c-25 -1 -81 -5 -125 -10z"/>
<path d="M9773 193 c32 -2 81 -2 110 0 29 2 3 3 -58 3 -60 0 -84 -1 -52 -3z"/>
<path d="M10078 183 c6 -2 18 -2 25 0 6 3 1 5 -13 5 -14 0 -19 -2 -12 -5z"/>
<path d="M10188 183 c39 -2 105 -2 145 0 39 1 7 3 -73 3 -80 0 -112 -2 -72 -3z"/>
</g>
</svg>
