<?xml version="1.0" encoding="UTF-8"?>
<!-- Generator: visioncortex VTracer 0.6.3 -->
<svg version="1.1" xmlns="http://www.w3.org/2000/svg" width="1280" height="1280">
<path d="M0 0 C22.04 0.57 44.06 1.32 66.09 2.33 C69.99 2.51 73.89 2.68 77.79 2.85 C82.8 3.08 87.82 3.3 92.83 3.53 C105.24 4.09 117.66 4.64 130.08 5.18 C130.99 5.22 131.9 5.26 132.83 5.3 C137.47 5.51 142.11 5.71 146.75 5.91 C156.25 6.33 165.74 6.75 175.24 7.17 C176.66 7.23 176.66 7.23 178.12 7.29 C193.46 7.97 208.8 8.66 224.14 9.35 C240.04 10.07 255.93 10.77 271.83 11.46 C280.7 11.85 289.56 12.24 298.43 12.65 C336.06 14.39 373.25 15.42 410.9 13.37 C418.7 12.95 426.49 12.62 434.29 12.31 C435.73 12.25 437.17 12.19 438.61 12.13 C440.81 12.04 443.01 11.95 445.21 11.86 C453.59 11.51 461.96 11.15 470.34 10.79 C471.92 10.72 473.49 10.66 475.07 10.59 C477.47 10.48 479.87 10.38 482.27 10.28 C490.6 9.92 498.92 9.56 507.24 9.2 C522.09 8.57 536.93 7.93 551.78 7.29 C552.66 7.26 553.54 7.22 554.44 7.18 C564.3 6.76 574.15 6.33 584.01 5.91 C587.61 5.75 591.22 5.6 594.83 5.44 C596.16 5.39 596.16 5.39 597.53 5.33 C612.39 4.69 627.25 4.05 642.11 3.42 C651.22 3.03 660.33 2.63 669.44 2.24 C675.66 1.97 681.87 1.71 688.09 1.44 C691.66 1.29 695.24 1.13 698.82 0.98 C702.7 0.81 706.58 0.64 710.46 0.48 C711.58 0.43 712.7 0.38 713.85 0.33 C720.57 0.05 727.27 -0.06 734 0 C730.65 6.17 726.73 11.83 722.69 17.56 C717.24 25.34 711.83 33.14 706.5 41 C700.63 49.64 694.68 58.23 688.71 66.8 C683.1 74.84 677.54 82.91 672 91 C665.74 100.13 659.45 109.23 653.12 118.31 C646.52 127.79 639.98 137.31 633.47 146.85 C626.05 157.71 618.56 168.51 611.04 179.3 C606.3 186.11 601.61 192.94 596.93 199.8 C591.98 207.05 586.96 214.25 581.94 221.45 C577.77 227.45 573.62 233.46 569.5 239.5 C564.03 247.52 558.49 255.49 552.94 263.45 C548.23 270.21 543.57 277 538.93 283.8 C534.7 290 530.42 296.16 526.12 302.31 C520.87 309.85 515.66 317.4 510.5 325 C504.67 333.58 498.77 342.1 492.84 350.61 C488.7 356.55 484.58 362.51 480.5 368.5 C475.03 376.52 469.49 384.49 463.94 392.45 C459.77 398.45 455.62 404.46 451.5 410.5 C446.03 418.52 440.49 426.49 434.94 434.45 C430.23 441.21 425.57 448 420.93 454.8 C416.7 461 412.42 467.16 408.12 473.31 C402.25 481.73 396.44 490.19 390.68 498.69 C385.19 506.76 379.61 514.77 374.01 522.77 C373.37 523.68 372.73 524.6 372.07 525.55 C371.5 526.36 370.93 527.17 370.34 528.01 C368.97 529.95 368.97 529.95 368 532 C364.38 530.79 363.89 529.77 361.81 526.65 C361.2 525.75 360.59 524.84 359.96 523.9 C359.32 522.93 358.67 521.95 358 520.94 C356.63 518.9 355.27 516.87 353.9 514.84 C353.23 513.83 352.56 512.83 351.87 511.8 C349.47 508.2 347.02 504.63 344.56 501.06 C344.14 500.44 343.71 499.82 343.27 499.18 C338.56 492.34 333.8 485.52 329.04 478.7 C324.3 471.89 319.61 465.06 314.93 458.2 C310.66 451.94 306.33 445.72 302 439.5 C296.6 431.76 291.25 423.99 285.93 416.2 C281.7 410 277.42 403.84 273.12 397.69 C267.24 389.25 261.43 380.78 255.65 372.28 C250.43 364.61 245.14 357 239.84 349.39 C235.7 343.45 231.58 337.49 227.5 331.5 C222.71 324.47 217.86 317.48 213 310.5 C207.61 302.76 202.25 295 196.93 287.2 C192.66 280.94 188.33 274.72 184 268.5 C178.61 260.76 173.25 253 167.93 245.2 C163.66 238.94 159.33 232.72 155 226.5 C149.61 218.76 144.25 211 138.93 203.2 C134.66 196.94 130.33 190.72 126 184.5 C119.44 175.09 112.94 165.63 106.47 156.15 C99.05 145.29 91.56 134.49 84.04 123.7 C79.3 116.89 74.61 110.06 69.93 103.2 C65.66 96.94 61.33 90.72 57 84.5 C50.44 75.09 43.94 65.63 37.47 56.15 C30.65 46.17 23.78 36.23 16.88 26.31 C16.19 25.33 15.5 24.34 14.8 23.32 C11.87 19.11 8.94 14.9 5.98 10.71 C5.55 10.1 5.12 9.49 4.68 8.87 C3.59 7.32 2.5 5.77 1.41 4.23 C0 2 0 2 0 0 Z " fill="#000000" transform="translate(273,590)"/>
<path d="M0 0 C4.36 2.4 7.91 5.36 11.62 8.62 C12.88 9.71 14.13 10.8 15.38 11.88 C15.99 12.41 16.61 12.94 17.24 13.49 C19.65 15.56 22.1 17.56 24.56 19.56 C28.58 22.83 32.55 26.15 36.5 29.5 C40.47 32.87 44.46 36.21 48.5 39.5 C53.1 43.25 57.64 47.07 62.16 50.91 C65.58 53.81 69.03 56.67 72.5 59.5 C77.1 63.25 81.64 67.07 86.16 70.91 C89.58 73.81 93.03 76.67 96.5 79.5 C101.1 83.25 105.64 87.07 110.16 90.91 C113.58 93.81 117.03 96.67 120.5 99.5 C125.1 103.25 129.64 107.07 134.16 110.91 C137.58 113.81 141.03 116.67 144.5 119.5 C149.1 123.25 153.64 127.07 158.16 130.91 C161.58 133.81 165.03 136.67 168.5 139.5 C173.1 143.25 177.64 147.07 182.16 150.91 C185.58 153.81 189.03 156.67 192.5 159.5 C197.1 163.25 201.64 167.07 206.16 170.91 C209.58 173.81 213.03 176.67 216.5 179.5 C221.1 183.25 225.64 187.07 230.16 190.91 C233.58 193.81 237.03 196.67 240.5 199.5 C245.1 203.25 249.64 207.07 254.16 210.91 C257.58 213.81 261.03 216.67 264.5 219.5 C269.1 223.25 273.64 227.07 278.16 230.91 C281.58 233.81 285.03 236.67 288.5 239.5 C293.1 243.25 297.64 247.07 302.16 250.91 C305.58 253.81 309.03 256.67 312.5 259.5 C317.1 263.25 321.64 267.07 326.16 270.91 C330.46 274.56 334.81 278.13 339.18 281.68 C342.92 284.75 346.6 287.89 350.28 291.03 C354.23 294.4 358.3 297.58 362.49 300.66 C362.99 301.1 363.49 301.54 364 302 C364 302.66 364 303.32 364 304 C350.14 303.43 336.29 302.86 322.43 302.28 C318.69 302.13 314.95 301.97 311.21 301.82 C272.88 300.23 234.56 298.6 196.23 296.95 C186.97 296.55 177.7 296.16 168.43 295.76 C167.1 295.7 165.76 295.65 164.43 295.59 C159.08 295.36 153.72 295.13 148.36 294.9 C132.9 294.24 117.43 293.57 101.96 292.9 C90.96 292.43 79.96 291.95 68.96 291.48 C62.9 291.22 56.83 290.96 50.77 290.7 C45.13 290.45 39.49 290.21 33.85 289.97 C31.8 289.89 29.76 289.8 27.71 289.71 C4.81 288.7 -17.84 289.27 -40.73 290.27 C-45.02 290.46 -49.31 290.64 -53.6 290.82 C-61.02 291.14 -68.43 291.46 -75.85 291.78 C-86.57 292.24 -97.29 292.7 -108.01 293.16 C-125.41 293.91 -142.81 294.66 -160.21 295.41 C-177.1 296.14 -193.99 296.87 -210.87 297.59 C-211.92 297.64 -212.96 297.68 -214.03 297.73 C-221.33 298.04 -228.63 298.35 -235.93 298.67 C-244.02 299.02 -252.1 299.36 -260.19 299.71 C-261.17 299.75 -262.15 299.79 -263.16 299.84 C-276.74 300.42 -290.33 301.01 -303.92 301.59 C-309.33 301.83 -314.75 302.06 -320.17 302.29 C-325.21 302.51 -330.25 302.73 -335.29 302.94 C-338.34 303.08 -341.38 303.21 -344.43 303.34 C-345.83 303.4 -347.23 303.46 -348.64 303.52 C-350.53 303.6 -352.43 303.68 -354.32 303.77 C-355.91 303.83 -355.91 303.83 -357.52 303.9 C-359.01 303.96 -360.51 304 -362 304 C-360.44 299.85 -357.4 297.53 -354.06 294.81 C-353.48 294.33 -352.9 293.85 -352.3 293.35 C-350.54 291.89 -348.77 290.44 -347 289 C-346.06 288.23 -345.12 287.46 -344.15 286.67 C-342.37 285.21 -340.59 283.76 -338.81 282.31 C-335.68 279.74 -332.59 277.12 -329.5 274.5 C-324.65 270.38 -319.75 266.33 -314.81 262.31 C-311.68 259.74 -308.59 257.12 -305.5 254.5 C-300.65 250.38 -295.75 246.33 -290.81 242.31 C-287.68 239.74 -284.59 237.12 -281.5 234.5 C-276.65 230.38 -271.75 226.33 -266.81 222.31 C-263.68 219.74 -260.59 217.12 -257.5 214.5 C-252.65 210.38 -247.75 206.33 -242.81 202.31 C-239.68 199.74 -236.59 197.12 -233.5 194.5 C-228.65 190.38 -223.75 186.33 -218.81 182.31 C-215.68 179.74 -212.59 177.12 -209.5 174.5 C-204.65 170.38 -199.75 166.33 -194.81 162.31 C-191.68 159.74 -188.59 157.12 -185.5 154.5 C-180.65 150.38 -175.75 146.33 -170.81 142.31 C-167.68 139.74 -164.59 137.12 -161.5 134.5 C-156.65 130.38 -151.75 126.33 -146.81 122.31 C-143.68 119.74 -140.59 117.12 -137.5 114.5 C-132.65 110.38 -127.75 106.33 -122.81 102.31 C-119.68 99.74 -116.59 97.12 -113.5 94.5 C-108.65 90.38 -103.75 86.33 -98.81 82.31 C-95.68 79.74 -92.59 77.12 -89.5 74.5 C-84.65 70.38 -79.75 66.33 -74.81 62.31 C-71.68 59.74 -68.59 57.12 -65.5 54.5 C-60.65 50.38 -55.75 46.33 -50.81 42.31 C-47.68 39.74 -44.59 37.12 -41.5 34.5 C-36.65 30.38 -31.75 26.33 -26.81 22.31 C-23.13 19.28 -19.5 16.2 -15.86 13.11 C-10.63 8.67 -5.33 4.32 0 0 Z " fill="#000000" transform="translate(639,279)"/>
<path d="M0 0 C8.97 1.6 17.66 4.04 26.42 6.52 C28.05 6.98 29.67 7.44 31.3 7.9 C35.68 9.13 40.07 10.36 44.45 11.6 C49.08 12.91 53.71 14.21 58.34 15.51 C66.86 17.91 75.38 20.31 83.9 22.72 C92.02 25.01 100.15 27.3 108.28 29.58 C131.94 36.24 155.6 42.91 179.26 49.59 C186.47 51.62 193.67 53.65 200.88 55.69 C201.67 55.91 202.46 56.13 203.27 56.36 C231.08 64.21 258.89 72.03 286.7 79.85 C289.67 80.68 292.63 81.51 295.6 82.35 C300.26 83.66 304.92 84.97 309.59 86.28 C311.3 86.76 313.01 87.24 314.73 87.72 C323.48 90.18 332.23 92.63 341 95 C341 99 341 99 339.13 101.04 C337.86 102.1 337.86 102.1 336.56 103.19 C333.03 106.22 329.64 109.3 326.38 112.62 C323.71 115.33 321.01 117.91 318.12 120.38 C314.75 123.26 311.61 126.34 308.5 129.5 C305.45 132.59 302.38 135.62 299.06 138.44 C294.96 141.94 291.21 145.76 287.43 149.59 C284.07 152.97 280.62 156.14 276.99 159.23 C274.56 161.39 272.29 163.68 270 166 C267.12 168.91 264.24 171.72 261.12 174.38 C257.57 177.41 254.29 180.67 251 184 C247.15 187.9 243.24 191.61 239.06 195.16 C235.93 197.96 233.01 200.96 230.07 203.95 C226.85 207.2 223.51 210.22 220.03 213.19 C217.59 215.37 215.3 217.67 213 220 C210.12 222.91 207.24 225.72 204.12 228.38 C200.57 231.41 197.29 234.67 194 238 C190.15 241.9 186.24 245.61 182.06 249.16 C178.93 251.96 176.01 254.97 173.07 257.95 C169.87 261.18 166.55 264.18 163.09 267.12 C160.46 269.48 157.98 271.98 155.5 274.5 C151.83 278.22 148.07 281.74 144.09 285.12 C141.46 287.48 138.98 289.98 136.5 292.5 C132.83 296.22 129.07 299.74 125.09 303.12 C122.46 305.48 119.98 307.98 117.5 310.5 C113.83 314.22 110.07 317.74 106.09 321.12 C103.46 323.48 100.98 325.98 98.5 328.5 C95.45 331.59 92.38 334.62 89.06 337.44 C84.96 340.94 81.21 344.76 77.43 348.59 C74.08 351.96 70.64 355.13 67.02 358.2 C63.54 361.31 60.34 364.7 57.1 368.06 C55 370 55 370 53 370 C53 370.66 53 371.32 53 372 C51.57 373.41 51.57 373.41 49.56 375.06 C46.39 377.75 43.41 380.54 40.5 383.5 C37.81 386.22 35.1 388.83 32.19 391.31 C28.01 394.88 24.19 398.78 20.39 402.74 C17.17 406.03 13.92 408.57 10 411 C8.88 401.18 8.7 391.36 8.49 381.48 C8.45 379.61 8.41 377.74 8.36 375.87 C8.24 370.76 8.13 365.65 8.02 360.55 C7.9 355.07 7.77 349.59 7.65 344.11 C7.44 334.69 7.22 325.27 7.02 315.86 C6.69 301.1 6.35 286.34 6.02 271.58 C5.91 266.6 5.8 261.62 5.68 256.63 C5.66 255.4 5.63 254.16 5.6 252.89 C5.4 244.08 5.2 235.26 5 226.45 C4.3 195.13 3.58 163.8 2.85 132.47 C2.78 129.39 2.71 126.3 2.64 123.21 C2.23 105.87 1.83 88.53 1.42 71.18 C1.24 63.24 1.05 55.3 0.87 47.36 C0.76 42.6 0.65 37.83 0.53 33.07 C0.47 30.19 0.4 27.32 0.33 24.44 C0.29 22.52 0.24 20.6 0.2 18.68 C0.06 12.45 -0.03 6.23 0 0 Z " fill="#000000" transform="translate(259,167)"/>
<path d="M0 0 C0.1 23.05 -0.11 46.07 -0.66 69.1 C-0.76 73.28 -0.86 77.46 -0.95 81.63 C-1.14 89.75 -1.33 97.88 -1.52 106 C-1.74 115.5 -1.96 125 -2.18 134.51 C-2.57 151.48 -2.97 168.46 -3.36 185.43 C-3.75 201.82 -4.13 218.22 -4.51 234.61 C-4.53 235.62 -4.55 236.63 -4.58 237.68 C-4.6 238.68 -4.62 239.69 -4.65 240.73 C-4.69 242.77 -4.74 244.8 -4.79 246.84 C-4.81 247.84 -4.83 248.84 -4.86 249.88 C-5.22 265.62 -5.59 281.36 -5.95 297.1 C-6.09 302.76 -6.22 308.42 -6.35 314.08 C-6.56 323.07 -6.76 332.05 -6.98 341.03 C-7.07 345.12 -7.17 349.21 -7.26 353.3 C-7.7 372.54 -8.26 391.77 -9 411 C-11.78 409.66 -13.8 408.43 -15.95 406.21 C-16.75 405.39 -16.75 405.39 -17.57 404.56 C-18.12 403.98 -18.68 403.41 -19.25 402.81 C-23.4 398.58 -27.59 394.51 -32.11 390.67 C-35.15 387.98 -37.95 385.06 -40.79 382.18 C-42.74 380.26 -44.73 378.46 -46.81 376.69 C-50.39 373.62 -53.69 370.35 -57 367 C-60.24 363.72 -63.48 360.49 -67 357.5 C-71.09 354.03 -74.81 350.22 -78.57 346.41 C-81.92 343.04 -85.36 339.87 -88.98 336.8 C-92.45 333.71 -95.66 330.36 -98.9 327.04 C-100.83 324.96 -100.83 324.96 -103 324 C-103 323.34 -103 322.68 -103 322 C-103.53 321.8 -104.06 321.6 -104.61 321.39 C-108.04 319.4 -110.51 316.66 -113.25 313.81 C-118.5 308.46 -118.5 308.46 -124.06 303.44 C-128.13 299.99 -131.83 296.2 -135.57 292.41 C-138.92 289.04 -142.36 285.87 -145.98 282.8 C-149.45 279.71 -152.66 276.36 -155.9 273.04 C-157.83 270.96 -157.83 270.96 -160 270 C-160 269.34 -160 268.68 -160 268 C-160.59 267.73 -161.19 267.46 -161.8 267.19 C-164.02 265.99 -165.42 264.79 -167.17 262.99 C-167.75 262.4 -168.33 261.81 -168.92 261.2 C-169.53 260.58 -170.13 259.96 -170.75 259.31 C-175.02 254.97 -179.29 250.77 -183.95 246.84 C-187.3 243.84 -190.41 240.61 -193.57 237.41 C-196.94 234.02 -200.41 230.82 -204.05 227.73 C-207.22 224.91 -210.16 221.86 -213.12 218.82 C-214.88 216.94 -214.88 216.94 -217 216 C-217 215.34 -217 214.68 -217 214 C-217.59 213.73 -218.19 213.46 -218.8 213.19 C-221.02 211.99 -222.42 210.79 -224.17 208.99 C-224.75 208.4 -225.33 207.81 -225.92 207.2 C-226.53 206.58 -227.13 205.96 -227.75 205.31 C-232.02 200.97 -236.29 196.77 -240.95 192.84 C-244.3 189.84 -247.41 186.61 -250.57 183.41 C-253.94 180.02 -257.41 176.82 -261.05 173.73 C-264.22 170.91 -267.16 167.86 -270.12 164.82 C-271.88 162.94 -271.88 162.94 -274 162 C-274 161.34 -274 160.68 -274 160 C-274.59 159.73 -275.19 159.46 -275.8 159.19 C-278.02 157.99 -279.42 156.79 -281.17 154.99 C-281.75 154.4 -282.33 153.81 -282.92 153.2 C-283.53 152.58 -284.13 151.96 -284.75 151.31 C-289.02 146.97 -293.29 142.77 -297.95 138.84 C-301.3 135.84 -304.42 132.6 -307.58 129.4 C-310.91 126.05 -314.34 122.9 -317.94 119.84 C-321.07 117.05 -323.98 114.05 -326.92 111.06 C-330.25 107.7 -333.7 104.55 -337.34 101.54 C-339.17 99.84 -340.53 98 -342 96 C-325.64 90.9 -309.18 86.19 -292.67 81.61 C-285.97 79.75 -279.28 77.89 -272.59 76.02 C-271.01 75.58 -269.44 75.15 -267.87 74.71 C-250.12 69.76 -232.38 64.76 -214.64 59.76 C-212.18 59.06 -209.71 58.36 -207.24 57.67 C-200.65 55.8 -194.06 53.94 -187.46 52.08 C-172.26 47.79 -157.06 43.51 -141.85 39.22 C-116.25 32.02 -90.64 24.8 -65.04 17.58 C-61.65 16.62 -58.25 15.67 -54.85 14.71 C-50.87 13.59 -46.88 12.46 -42.9 11.34 C-40.65 10.71 -38.41 10.07 -36.16 9.44 C-29.84 7.66 -23.52 5.87 -17.21 4.04 C-16.22 3.75 -15.23 3.46 -14.21 3.17 C-12.44 2.65 -10.67 2.14 -8.9 1.62 C-5.84 0.73 -3.21 0 0 0 Z " fill="#000000" transform="translate(1020,167)"/>
<path d="M0 0 C7.58 1.26 14.95 2.93 22.36 4.95 C23.43 5.24 24.5 5.53 25.61 5.82 C29.13 6.77 32.66 7.73 36.19 8.69 C38.72 9.37 41.25 10.05 43.78 10.74 C48.36 11.97 52.93 13.2 57.5 14.44 C68.07 17.29 78.64 20.12 89.21 22.95 C94.86 24.46 100.52 25.98 106.17 27.49 C116.63 30.29 127.08 33.09 137.54 35.89 C146.15 38.2 154.77 40.5 163.38 42.81 C168.77 44.26 174.16 45.7 179.56 47.14 C180.59 47.42 181.63 47.7 182.7 47.98 C184.76 48.53 186.82 49.09 188.88 49.64 C193.85 50.97 198.82 52.3 203.78 53.65 C215.32 56.79 215.32 56.79 226.93 59.67 C229.01 60.16 231.08 60.67 233.15 61.18 C235.54 61.77 237.94 62.33 240.34 62.84 C248.99 65.01 252.74 69.37 257.31 76.88 C259.3 80.34 259.3 80.34 260.66 83.29 C264.06 90.26 268.06 96.75 272.19 103.31 C273.54 105.51 274.89 107.7 276.23 109.89 C279.91 115.87 283.66 121.81 287.42 127.74 C291.68 134.45 295.84 141.22 300 148 C305.16 156.4 310.36 164.78 315.64 173.1 C319.79 179.64 323.86 186.22 327.93 192.81 C332.1 199.56 336.29 206.28 340.5 213 C345.19 220.49 349.86 227.99 354.5 235.5 C359.1 242.95 363.73 250.39 368.38 257.81 C369 258.82 369.63 259.82 370.28 260.85 C373.42 265.88 376.57 270.91 379.72 275.94 C386.94 287.47 394.11 299.04 401.22 310.63 C405.64 317.82 410.12 324.97 414.64 332.1 C418.79 338.64 422.87 345.22 426.93 351.81 C431.1 358.56 435.29 365.28 439.5 372 C444.19 379.49 448.86 386.99 453.5 394.5 C458.1 401.95 462.73 409.39 467.38 416.81 C468 417.82 468.63 418.82 469.28 419.85 C472.42 424.88 475.57 429.91 478.72 434.94 C485.94 446.47 493.11 458.04 500.22 469.63 C504.64 476.82 509.12 483.97 513.64 491.1 C517.79 497.64 521.87 504.22 525.93 510.81 C529.47 516.54 533.03 522.25 536.6 527.96 C537.86 529.97 539.12 531.99 540.38 534.01 C543.53 539.06 546.69 544.09 549.88 549.12 C551.08 551.04 552.29 552.96 553.5 554.88 C554.07 555.77 554.64 556.66 555.23 557.58 C555.74 558.4 556.25 559.21 556.78 560.05 C557.24 560.77 557.69 561.49 558.16 562.23 C558.44 562.81 558.71 563.4 559 564 C558.67 564.66 558.34 565.32 558 566 C553.28 561.31 548.57 556.61 543.86 551.91 C542.26 550.32 540.66 548.72 539.05 547.13 C536.74 544.83 534.43 542.52 532.12 540.22 C531.41 539.52 530.71 538.81 529.98 538.09 C529.3 537.41 528.62 536.73 527.92 536.03 C527.33 535.44 526.74 534.86 526.13 534.25 C524.26 532.27 522.47 530.25 520.69 528.19 C517.3 524.29 513.74 520.61 510.07 516.98 C509.42 516.33 508.77 515.67 508.1 515 C506.69 513.6 505.29 512.2 503.88 510.81 C501.65 508.59 499.42 506.37 497.19 504.14 C492.47 499.43 487.73 494.71 483 490 C477.51 484.53 472.02 479.07 466.54 473.6 C464.36 471.42 462.17 469.24 459.98 467.07 C458.63 465.72 457.28 464.37 455.93 463.02 C455.33 462.43 454.73 461.83 454.11 461.22 C451.14 458.26 448.3 455.24 445.56 452.06 C441.91 447.84 438.02 443.9 434.06 439.97 C433.3 439.21 432.54 438.45 431.76 437.67 C430.12 436.03 428.48 434.4 426.84 432.77 C424.24 430.18 421.64 427.59 419.05 425 C413.53 419.5 408.02 414 402.5 408.5 C396.1 402.13 389.71 395.75 383.31 389.37 C380.76 386.83 378.21 384.29 375.66 381.75 C374.08 380.18 372.51 378.6 370.94 377.03 C370.23 376.34 369.53 375.64 368.81 374.92 C364.96 371.07 361.32 367.11 357.77 362.99 C354.68 359.51 351.37 356.25 348.06 352.97 C347.3 352.21 346.54 351.45 345.76 350.67 C344.12 349.03 342.48 347.4 340.84 345.77 C338.24 343.18 335.64 340.59 333.05 338 C327.53 332.5 322.02 327 316.5 321.5 C310.1 315.13 303.71 308.75 297.31 302.37 C294.76 299.83 292.21 297.29 289.66 294.75 C288.08 293.18 286.51 291.6 284.94 290.03 C284.23 289.34 283.53 288.64 282.81 287.92 C278.94 284.05 275.28 280.07 271.71 275.93 C268.96 272.82 266.02 269.9 263.07 266.98 C262.42 266.33 261.77 265.67 261.1 265 C259.69 263.6 258.29 262.2 256.88 260.81 C254.65 258.59 252.42 256.37 250.19 254.14 C245.47 249.43 240.73 244.71 236 240 C230.51 234.53 225.02 229.07 219.54 223.6 C217.36 221.42 215.17 219.24 212.98 217.07 C211.63 215.72 210.28 214.37 208.93 213.02 C208.33 212.43 207.73 211.83 207.11 211.22 C204.14 208.26 201.3 205.24 198.56 202.06 C194.91 197.84 191.02 193.9 187.06 189.97 C186.3 189.21 185.54 188.45 184.76 187.67 C183.12 186.03 181.48 184.4 179.84 182.77 C177.24 180.18 174.64 177.59 172.05 175 C166.53 169.5 161.02 164 155.5 158.5 C149.1 152.13 142.71 145.75 136.31 139.37 C133.76 136.83 131.21 134.29 128.66 131.75 C127.08 130.18 125.51 128.6 123.94 127.03 C123.23 126.34 122.53 125.64 121.81 124.92 C117.96 121.07 114.32 117.11 110.77 112.99 C107.68 109.51 104.37 106.25 101.06 102.97 C100.3 102.21 99.54 101.45 98.76 100.67 C97.12 99.03 95.48 97.4 93.84 95.77 C91.24 93.18 88.64 90.59 86.05 88 C80.53 82.5 75.02 77 69.5 71.5 C63.1 65.13 56.71 58.75 50.31 52.37 C47.76 49.83 45.21 47.29 42.66 44.75 C41.08 43.18 39.51 41.6 37.94 40.03 C37.23 39.34 36.53 38.64 35.81 37.92 C31.88 34 28.15 29.97 24.54 25.76 C22.23 23.12 19.78 20.68 17.29 18.22 C16.78 17.73 16.28 17.23 15.77 16.72 C14.2 15.16 12.63 13.61 11.06 12.06 C8.97 9.99 6.88 7.92 4.79 5.85 C3.87 4.94 2.95 4.03 2 3.1 C0 1 0 1 0 0 Z " fill="#000000" transform="translate(15,523)"/>
<path d="M0 0 C-0.76 0.76 -1.52 1.52 -2.31 2.3 C-9.5 9.48 -16.7 16.66 -23.89 23.84 C-27.59 27.53 -31.28 31.22 -34.98 34.91 C-38.56 38.47 -42.13 42.04 -45.7 45.61 C-47.06 46.96 -48.42 48.32 -49.78 49.67 C-51.69 51.58 -53.6 53.49 -55.51 55.4 C-56.07 55.95 -56.62 56.5 -57.19 57.07 C-60.05 59.93 -62.77 62.85 -65.41 65.91 C-69.07 70.14 -72.97 74.09 -76.94 78.03 C-77.7 78.79 -78.46 79.55 -79.24 80.33 C-80.88 81.97 -82.52 83.6 -84.16 85.23 C-86.76 87.82 -89.36 90.41 -91.95 93 C-98.4 99.44 -104.85 105.87 -111.31 112.3 C-116.77 117.74 -122.23 123.18 -127.69 128.63 C-130.24 131.17 -132.79 133.71 -135.34 136.25 C-136.92 137.82 -138.49 139.4 -140.06 140.97 C-141.12 142.01 -141.12 142.01 -142.19 143.08 C-145.41 146.3 -148.53 149.55 -151.5 153 C-155.13 157.2 -159 161.12 -162.94 165.03 C-163.7 165.79 -164.46 166.55 -165.24 167.33 C-166.88 168.97 -168.52 170.6 -170.16 172.23 C-172.76 174.82 -175.36 177.41 -177.95 180 C-184.4 186.44 -190.85 192.87 -197.31 199.3 C-202.77 204.74 -208.23 210.18 -213.69 215.63 C-216.24 218.17 -218.79 220.71 -221.34 223.25 C-222.92 224.82 -224.49 226.4 -226.06 227.97 C-227.12 229.01 -227.12 229.01 -228.19 230.08 C-232.06 233.95 -235.72 237.93 -239.29 242.07 C-242.04 245.18 -244.98 248.1 -247.93 251.02 C-248.58 251.67 -249.23 252.33 -249.9 253 C-251.31 254.4 -252.71 255.8 -254.12 257.19 C-256.35 259.41 -258.58 261.63 -260.81 263.86 C-266.34 269.37 -271.87 274.88 -277.41 280.39 C-282.09 285.06 -286.78 289.73 -291.46 294.4 C-293.64 296.58 -295.83 298.76 -298.02 300.93 C-299.37 302.28 -300.72 303.63 -302.07 304.98 C-302.67 305.57 -303.27 306.17 -303.89 306.78 C-306.86 309.74 -309.7 312.76 -312.44 315.94 C-316.09 320.16 -319.98 324.1 -323.94 328.03 C-324.7 328.79 -325.46 329.55 -326.24 330.33 C-327.88 331.97 -329.52 333.6 -331.16 335.23 C-333.76 337.82 -336.36 340.41 -338.95 343 C-345.4 349.44 -351.85 355.87 -358.31 362.3 C-363.77 367.74 -369.23 373.18 -374.69 378.63 C-377.24 381.17 -379.79 383.71 -382.34 386.25 C-383.92 387.82 -385.49 389.4 -387.06 390.97 C-387.77 391.66 -388.47 392.36 -389.19 393.08 C-392.41 396.3 -395.52 399.55 -398.49 402.99 C-402.15 407.23 -406.06 411.18 -410.03 415.12 C-411.18 416.28 -411.18 416.28 -412.36 417.45 C-414.02 419.11 -415.68 420.76 -417.34 422.42 C-419.98 425.04 -422.61 427.66 -425.24 430.29 C-431.3 436.33 -437.36 442.38 -443.42 448.42 C-449.43 454.4 -455.43 460.39 -461.43 466.38 C-464.02 468.95 -466.6 471.53 -469.19 474.1 C-470.78 475.69 -472.38 477.28 -473.97 478.88 C-475.04 479.94 -475.04 479.94 -476.13 481.02 C-480.02 484.91 -483.7 488.91 -487.3 493.07 C-490.04 496.18 -492.97 499.09 -495.91 502.01 C-496.56 502.66 -497.22 503.31 -497.89 503.98 C-499.29 505.38 -500.69 506.77 -502.09 508.16 C-504.3 510.37 -506.52 512.57 -508.73 514.78 C-513.42 519.46 -518.12 524.14 -522.81 528.81 C-528.27 534.25 -533.73 539.69 -539.19 545.13 C-541.37 547.31 -543.55 549.48 -545.74 551.65 C-547.07 552.98 -548.4 554.31 -549.73 555.64 C-550.34 556.24 -550.95 556.84 -551.58 557.46 C-553.99 559.88 -556.1 562.15 -558 565 C-558.66 564.67 -559.32 564.34 -560 564 C-550.35 548.28 -540.65 532.6 -530.86 516.97 C-527.74 511.98 -524.62 506.99 -521.5 502 C-517.76 496.02 -514.03 490.04 -510.29 484.07 C-503.06 472.53 -495.89 460.96 -488.77 449.36 C-484.43 442.29 -480.03 435.26 -475.58 428.26 C-471.32 421.55 -467.16 414.78 -463 408 C-457.92 399.72 -452.79 391.47 -447.58 383.26 C-443.32 376.55 -439.16 369.78 -435 363 C-429.89 354.67 -424.73 346.36 -419.5 338.11 C-409.46 322.27 -399.58 306.34 -389.77 290.36 C-385.43 283.29 -381.03 276.26 -376.58 269.26 C-372.32 262.55 -368.16 255.78 -364 249 C-358.92 240.72 -353.79 232.47 -348.58 224.26 C-344.32 217.55 -340.16 210.78 -336 204 C-330.89 195.67 -325.73 187.36 -320.5 179.11 C-310.46 163.27 -300.58 147.34 -290.77 131.36 C-286.43 124.3 -282.03 117.27 -277.59 110.28 C-272.56 102.35 -267.66 94.35 -262.78 86.33 C-261.83 84.78 -261.83 84.78 -260.86 83.19 C-260.31 82.29 -259.76 81.38 -259.19 80.45 C-258.86 79.95 -258.53 79.45 -258.19 78.93 C-256.89 76.88 -256.89 76.88 -255.52 74.11 C-251.96 67.8 -249.11 64.39 -242.11 62.11 C-239.31 61.36 -236.48 60.72 -233.64 60.09 C-232.06 59.7 -230.48 59.3 -228.9 58.9 C-225.46 58.04 -222 57.19 -218.55 56.36 C-212.79 54.97 -207.08 53.45 -201.36 51.9 C-199.86 51.5 -199.86 51.5 -198.33 51.09 C-196.28 50.53 -194.22 49.97 -192.16 49.41 C-186.81 47.97 -181.45 46.55 -176.1 45.13 C-173.89 44.54 -171.67 43.95 -169.46 43.36 C-168.35 43.07 -167.24 42.77 -166.09 42.47 C-160.3 40.93 -154.51 39.39 -148.72 37.84 C-146.38 37.22 -144.04 36.6 -141.69 35.97 C-139.96 35.51 -139.96 35.51 -138.19 35.04 C-134.71 34.11 -131.23 33.19 -127.75 32.26 C-109.29 27.34 -90.83 22.42 -72.37 17.48 C-68.85 16.54 -65.33 15.6 -61.81 14.66 C-59.84 14.13 -57.86 13.6 -55.89 13.07 C-53.38 12.4 -50.87 11.73 -48.36 11.06 C-42.3 9.44 -36.26 7.8 -30.22 6.1 C-27.16 5.25 -24.1 4.39 -21.04 3.54 C-19.57 3.13 -18.1 2.71 -16.63 2.29 C-14.59 1.71 -12.56 1.15 -10.52 0.58 C-8.77 0.08 -8.77 0.08 -6.99 -0.42 C-4.14 -0.97 -2.67 -1.01 0 0 Z " fill="#000000" transform="translate(1265,524)"/>
<path d="M0 0 C3.95 3.76 7.21 7.74 10.44 12.12 C10.95 12.82 11.47 13.52 12 14.23 C14.79 17.99 17.56 21.76 20.33 25.54 C21.47 27.09 22.61 28.64 23.75 30.19 C24.33 30.98 24.91 31.77 25.51 32.58 C29.94 38.6 34.45 44.56 39 50.5 C47.04 61.01 54.89 71.66 62.71 82.33 C69.39 91.45 76.13 100.52 83 109.5 C91.04 120.01 98.89 130.66 106.71 141.33 C114.05 151.35 121.48 161.29 129.03 171.15 C134.09 177.78 139.06 184.47 143.99 191.19 C147.63 196.15 151.3 201.08 155 206 C159.29 211.7 163.53 217.44 167.75 223.19 C172.76 230.01 177.85 236.77 183 243.5 C189.85 252.46 196.57 261.5 203.24 270.6 C206.36 274.86 209.49 279.12 212.62 283.38 C213.21 284.17 213.79 284.96 214.38 285.77 C216.67 288.88 218.95 291.94 221.4 294.91 C223 297 223 297 223 299 C222.38 299.24 221.75 299.48 221.11 299.73 C183.03 314.4 183.03 314.4 145 329.19 C130.34 334.92 115.67 340.62 101 346.31 C99.98 346.71 98.95 347.11 97.9 347.51 C89.55 350.75 81.2 353.98 72.85 357.22 C50.19 366 27.52 374.79 4.88 383.62 C4.03 383.96 3.18 384.29 2.3 384.63 C-5.66 387.74 -13.63 390.85 -21.58 393.99 C-22.68 394.42 -23.77 394.86 -24.9 395.3 C-26.85 396.07 -28.79 396.84 -30.74 397.62 C-31.96 398.1 -31.96 398.1 -33.21 398.59 C-33.91 398.87 -34.6 399.14 -35.31 399.43 C-37 400 -37 400 -39 400 C-38.41 386.49 -37.34 373.08 -36 359.63 C-35.79 357.55 -35.59 355.47 -35.38 353.4 C-34.83 347.77 -34.27 342.14 -33.71 336.52 C-33.12 330.51 -32.53 324.49 -31.93 318.48 C-30.92 308.22 -29.91 297.96 -28.89 287.7 C-27.38 272.4 -25.87 257.11 -24.36 241.81 C-23.83 236.48 -23.31 231.16 -22.78 225.83 C-22.65 224.5 -22.52 223.17 -22.39 221.84 C-21.41 211.9 -20.42 201.95 -19.44 192.01 C-16.49 162.17 -13.56 132.33 -10.65 102.49 C-10.31 99.01 -9.97 95.53 -9.64 92.05 C-8.26 77.98 -6.89 63.91 -5.53 49.84 C-4.93 43.63 -4.32 37.43 -3.72 31.22 C-3.48 28.74 -3.24 26.26 -3 23.78 C-2.68 20.48 -2.36 17.17 -2.03 13.87 C-1.9 12.43 -1.9 12.43 -1.76 10.97 C-1.67 10.1 -1.59 9.23 -1.5 8.34 C-1.42 7.59 -1.35 6.84 -1.28 6.07 C-1 3.99 -0.55 2.02 0 0 Z " fill="#000000" transform="translate(1057,181)"/>
<path d="M0 0 C0.33 0 0.66 0 1 0 C8.6 75.47 16.02 150.96 23.41 226.46 C24.63 239.02 25.86 251.58 27.1 264.14 C28.38 277.28 29.67 290.42 30.95 303.56 C31.67 310.84 32.38 318.12 33.09 325.4 C33.76 332.19 34.42 338.97 35.08 345.75 C35.32 348.21 35.57 350.67 35.81 353.13 C37.34 368.74 38.74 384.36 40 400 C38.43 399.54 36.87 399.08 35.3 398.61 C34.43 398.35 33.56 398.1 32.66 397.83 C28.37 396.49 24.21 394.86 20.03 393.22 C19.09 392.85 18.15 392.49 17.18 392.11 C14.1 390.91 11.02 389.71 7.94 388.5 C5.76 387.65 3.57 386.8 1.39 385.95 C-3.14 384.18 -7.68 382.42 -12.21 380.65 C-18.7 378.12 -25.19 375.6 -31.68 373.08 C-32.71 372.69 -33.73 372.29 -34.78 371.88 C-36.83 371.09 -38.88 370.29 -40.93 369.5 C-57.63 363.04 -74.31 356.54 -90.98 350.03 C-105.15 344.5 -119.32 338.99 -133.5 333.5 C-155.35 325.04 -177.18 316.53 -199 308 C-199.67 307.74 -200.34 307.48 -201.03 307.21 C-208.02 304.47 -215.01 301.74 -222 299 C-220.69 295.36 -219.14 292.59 -216.76 289.55 C-216.11 288.71 -215.46 287.87 -214.8 287.01 C-214.1 286.12 -213.4 285.23 -212.69 284.31 C-207.45 277.53 -202.29 270.72 -197.31 263.75 C-192.64 257.22 -187.84 250.81 -182.94 244.46 C-178.95 239.27 -175.05 234.03 -171.19 228.75 C-166.12 221.83 -160.96 214.99 -155.75 208.19 C-151.41 202.52 -147.11 196.84 -143 191 C-138.24 184.22 -133.2 177.67 -128.17 171.09 C-123.11 164.48 -118.14 157.81 -113.22 151.09 C-108.39 144.52 -103.51 138 -98.6 131.48 C-94.39 125.87 -90.21 120.22 -86.06 114.56 C-81.11 107.82 -76.08 101.14 -71 94.5 C-63.54 84.75 -56.25 74.9 -49 65 C-41.1 54.21 -33.12 43.49 -24.99 32.87 C-19.77 26.05 -14.66 19.16 -9.6 12.21 C-6.54 8.02 -3.44 3.91 0 0 Z " fill="#000000" transform="translate(222,181)"/>
<path d="M0 0 C250.47 0 500.94 0 759 0 C759.33 0.66 759.66 1.32 760 2 C758.87 2.22 757.74 2.45 756.57 2.68 C701.15 13.64 645.74 24.63 590.35 35.71 C589.15 35.95 587.95 36.19 586.71 36.44 C572.16 39.35 557.61 42.26 543.06 45.17 C530.64 47.66 518.22 50.14 505.8 52.63 C486.15 56.56 486.15 56.56 466.51 60.49 C464.88 60.82 464.88 60.82 463.23 61.15 C461.08 61.58 458.93 62.01 456.79 62.44 C451.66 63.46 446.54 64.49 441.41 65.51 C432.67 67.26 423.94 69.01 415.22 70.8 C411.49 71.56 407.77 72.32 404.05 73.08 C402.33 73.43 400.6 73.79 398.88 74.15 C396.52 74.64 394.16 75.12 391.8 75.6 C391.12 75.74 390.45 75.88 389.75 76.03 C381.93 77.6 375.12 77.06 367.43 75.48 C366.61 75.31 365.78 75.15 364.93 74.98 C362.17 74.43 359.41 73.87 356.66 73.31 C354.67 72.91 352.68 72.51 350.69 72.12 C345.26 71.03 339.84 69.93 334.41 68.84 C328.65 67.68 322.89 66.52 317.13 65.37 C307.32 63.4 297.51 61.43 287.7 59.45 C272.47 56.38 257.23 53.32 242 50.26 C236.96 49.25 231.92 48.24 226.88 47.23 C225.64 46.98 224.4 46.73 223.13 46.48 C214.41 44.73 205.7 42.98 196.99 41.23 C161.19 34.03 125.38 26.89 89.56 19.81 C87.47 19.4 85.37 18.98 83.28 18.57 C81.27 18.17 79.27 17.78 77.27 17.38 C76.3 17.19 75.34 17 74.34 16.81 C72.93 16.53 72.93 16.53 71.48 16.24 C70.56 16.06 69.63 15.87 68.68 15.69 C66.89 15.33 65.09 14.98 63.3 14.62 C42.19 10.45 21.1 6.23 0 2 C0 1.34 0 0.68 0 0 Z " fill="#000000" transform="translate(260,157)"/>
</svg>
